<?xml version="1.0" standalone="no"?>
<!DOCTYPE svg PUBLIC "-//W3C//DTD SVG 20010904//EN"
 "http://www.w3.org/TR/2001/REC-SVG-20010904/DTD/svg10.dtd">
<svg version="1.0" xmlns="http://www.w3.org/2000/svg"
 width="4159.000000pt" height="4159.000000pt" viewBox="0 0 4159.000000 4159.000000"
 preserveAspectRatio="xMidYMid meet">
<metadata>
Created by potrace 1.14, written by Peter Selinger 2001-2017
</metadata>
<g transform="translate(0.000000,4159.000000) scale(0.100000,-0.100000)"
fill="#000000" stroke="none">
<path d="M10137 39374 c-1 -1 -195 -5 -432 -9 -511 -8 -572 -10 -1140 -30
-130 -5 -400 -16 -480 -20 -44 -3 -129 -7 -190 -10 -184 -8 -432 -22 -580 -31
-44 -2 -116 -7 -159 -9 -44 -3 -114 -7 -155 -10 -42 -3 -112 -7 -156 -10 -44
-3 -107 -7 -140 -9 -33 -3 -100 -7 -150 -11 -49 -3 -117 -8 -150 -10 -33 -3
-94 -7 -135 -10 -41 -3 -106 -8 -145 -11 -126 -10 -159 -12 -240 -18 -44 -4
-102 -8 -130 -11 -27 -2 -84 -7 -125 -10 -75 -6 -123 -10 -235 -20 -33 -3 -87
-8 -120 -11 -33 -2 -80 -7 -105 -9 -25 -2 -74 -7 -110 -10 -36 -3 -87 -7 -115
-10 -27 -3 -79 -8 -115 -11 -36 -3 -78 -7 -95 -9 -16 -1 -63 -5 -104 -9 -41
-4 -90 -8 -110 -11 -20 -2 -65 -7 -101 -10 -36 -4 -83 -8 -105 -11 -22 -2 -67
-6 -100 -9 -33 -3 -76 -8 -95 -10 -19 -2 -62 -7 -95 -10 -33 -3 -80 -8 -105
-10 -25 -3 -67 -8 -95 -10 -27 -3 -66 -7 -85 -10 -19 -2 -64 -7 -100 -11 -36
-3 -76 -8 -90 -9 -14 -1 -56 -6 -95 -10 -38 -3 -81 -8 -95 -10 -14 -2 -50 -7
-80 -10 -30 -3 -77 -8 -105 -11 -85 -11 -98 -12 -160 -18 -33 -4 -76 -8 -95
-11 -64 -8 -124 -15 -169 -20 -24 -2 -60 -7 -80 -9 -20 -3 -61 -8 -91 -11 -30
-3 -66 -8 -80 -10 -14 -2 -45 -6 -70 -9 -49 -5 -112 -13 -187 -22 -27 -3 -61
-7 -78 -9 -16 -2 -52 -7 -80 -10 -27 -4 -63 -8 -80 -10 -16 -2 -50 -6 -75 -9
-65 -10 -108 -15 -170 -21 -30 -3 -66 -8 -80 -10 -14 -2 -45 -7 -70 -10 -25
-3 -56 -8 -70 -10 -14 -3 -47 -7 -75 -10 -27 -3 -66 -7 -85 -10 -19 -2 -57 -7
-85 -10 -27 -4 -63 -9 -80 -12 -16 -3 -41 -6 -55 -8 -81 -9 -179 -22 -233 -31
-23 -3 -53 -8 -67 -9 -46 -5 -125 -16 -157 -20 -65 -10 -94 -14 -136 -20 -23
-3 -59 -8 -80 -11 -50 -8 -82 -12 -141 -19 -28 -3 -51 -7 -52 -8 -1 -1 289 -2
644 -2 737 0 1074 -10 1657 -50 61 -4 128 -9 150 -10 40 -3 161 -13 245 -20
128 -11 209 -18 240 -20 31 -3 134 -13 200 -20 14 -2 57 -6 95 -10 39 -4 81
-9 95 -10 14 -2 54 -6 90 -10 36 -4 76 -8 90 -10 14 -2 50 -6 80 -10 30 -3 66
-8 80 -10 14 -2 50 -7 80 -10 30 -3 66 -8 80 -10 14 -2 48 -6 75 -9 28 -4 61
-8 75 -11 14 -2 48 -7 75 -10 51 -6 104 -14 134 -20 9 -2 44 -6 76 -10 33 -4
69 -9 80 -12 11 -2 35 -6 54 -9 19 -2 46 -6 61 -9 15 -3 42 -7 61 -9 19 -3 49
-7 67 -10 17 -3 46 -8 62 -11 17 -3 45 -8 63 -11 32 -5 50 -8 117 -18 19 -3
46 -8 60 -11 14 -3 39 -8 55 -10 17 -3 57 -11 90 -17 33 -6 69 -12 80 -14 11
-1 56 -10 100 -18 115 -21 137 -25 165 -31 14 -3 36 -7 50 -10 14 -3 36 -7 50
-10 14 -3 37 -7 52 -10 15 -2 35 -6 45 -9 10 -3 32 -8 48 -11 17 -2 41 -7 55
-10 14 -3 39 -8 55 -11 17 -2 46 -9 65 -14 19 -5 51 -12 70 -15 19 -4 40 -8
45 -9 6 -2 28 -6 50 -10 22 -5 65 -14 95 -21 30 -8 66 -16 80 -19 28 -6 104
-23 135 -30 23 -5 150 -35 180 -43 11 -2 33 -6 48 -9 15 -2 37 -8 47 -14 11
-6 20 -9 20 -6 0 2 24 -2 53 -10 28 -8 64 -16 79 -19 15 -3 38 -9 52 -15 15
-5 26 -8 26 -5 0 2 18 -2 40 -10 22 -8 40 -12 40 -10 0 3 11 0 25 -5 14 -5 36
-12 48 -15 12 -2 49 -12 82 -20 33 -9 68 -18 78 -20 10 -2 27 -7 37 -10 10 -3
27 -8 37 -10 10 -2 45 -11 78 -20 33 -10 76 -21 95 -26 46 -12 52 -14 140 -39
41 -12 83 -23 93 -25 9 -2 21 -6 25 -9 5 -3 19 -7 33 -10 13 -3 71 -19 129
-36 58 -17 114 -33 125 -36 27 -7 37 -10 55 -16 8 -3 56 -18 105 -33 50 -15
119 -36 155 -46 36 -11 72 -22 81 -24 8 -2 32 -10 52 -19 20 -8 37 -13 37 -10
0 3 8 0 18 -5 11 -6 30 -12 43 -15 13 -3 38 -10 54 -16 17 -6 174 -58 350
-116 176 -58 329 -109 340 -114 11 -6 40 -16 65 -24 25 -8 97 -33 160 -56 63
-22 120 -42 125 -44 6 -2 17 -6 25 -9 20 -9 182 -68 195 -71 6 -2 17 -6 25 -9
31 -13 205 -79 215 -81 10 -3 22 -8 98 -39 20 -9 37 -14 37 -11 0 3 12 -1 28
-10 15 -8 43 -20 62 -27 38 -13 80 -30 136 -55 20 -9 42 -17 48 -19 6 -1 24
-7 40 -14 15 -6 112 -45 215 -87 102 -41 195 -79 206 -84 11 -5 54 -23 95 -40
41 -17 89 -38 105 -45 17 -7 59 -25 95 -40 36 -15 90 -38 120 -52 30 -14 75
-33 100 -43 25 -10 80 -34 123 -54 43 -20 80 -36 82 -36 3 0 33 -13 67 -29 35
-15 86 -38 113 -51 28 -12 77 -35 110 -50 33 -15 83 -38 110 -50 28 -12 93
-43 145 -67 52 -25 129 -61 170 -80 41 -19 119 -57 173 -83 54 -27 100 -49
102 -49 3 0 175 -85 383 -189 323 -162 445 -225 570 -290 12 -7 32 -17 45 -24
12 -6 49 -26 82 -43 33 -18 101 -54 150 -80 50 -26 118 -63 153 -81 34 -19 92
-50 130 -70 37 -20 81 -45 97 -54 17 -10 57 -32 90 -50 117 -64 151 -84 261
-146 61 -35 116 -64 122 -64 6 0 12 -4 14 -8 2 -5 30 -23 63 -42 95 -53 530
-307 637 -371 54 -33 102 -59 107 -59 5 0 11 -4 13 -8 2 -5 53 -38 113 -74
116 -69 204 -123 314 -191 37 -23 76 -47 87 -54 100 -62 500 -317 612 -390 62
-40 114 -73 117 -73 3 0 13 -6 22 -14 24 -19 565 -380 578 -385 6 -2 12 -7 15
-11 3 -3 82 -58 175 -121 94 -63 172 -117 175 -120 3 -3 57 -41 120 -84 106
-73 462 -324 485 -342 52 -41 197 -143 204 -143 5 0 11 -4 13 -8 2 -5 39 -35
83 -67 160 -116 757 -562 820 -612 17 -13 35 -27 40 -31 174 -131 735 -571
758 -594 10 -10 21 -18 25 -18 4 0 21 -13 37 -28 17 -15 62 -52 100 -82 123
-96 624 -506 805 -659 113 -96 337 -285 360 -304 14 -12 43 -37 65 -56 22 -18
65 -55 95 -81 85 -73 631 -550 670 -586 19 -17 127 -114 240 -215 113 -101
228 -204 255 -229 28 -26 106 -98 175 -160 69 -63 157 -143 195 -179 39 -36
105 -97 146 -136 179 -167 467 -439 709 -671 284 -272 1187 -1170 1486 -1479
267 -275 415 -430 634 -661 142 -149 459 -488 565 -604 33 -36 110 -119 170
-185 61 -65 133 -144 160 -174 28 -30 73 -80 101 -111 28 -30 169 -188 314
-350 144 -162 277 -311 294 -330 279 -310 1016 -1169 1441 -1680 98 -118 195
-235 216 -260 160 -191 789 -971 1164 -1445 168 -213 717 -924 875 -1135 52
-69 97 -127 100 -130 3 -3 91 -120 195 -260 104 -140 193 -259 198 -265 16
-21 198 -268 327 -445 74 -102 139 -189 143 -195 5 -5 67 -91 138 -190 71 -98
136 -188 144 -200 9 -11 54 -74 100 -140 47 -66 91 -127 97 -135 7 -9 33 -45
57 -80 25 -36 47 -67 51 -70 3 -3 18 -25 34 -49 16 -25 33 -50 38 -55 14 -17
220 -311 393 -561 87 -126 161 -232 164 -235 3 -3 11 -13 16 -22 15 -26 278
-412 284 -418 3 -3 28 -39 55 -80 27 -41 53 -76 58 -78 4 -2 8 -7 8 -11 0 -8
559 -850 586 -884 8 -9 14 -19 14 -22 0 -8 154 -240 162 -243 4 -2 8 -8 8 -13
0 -5 30 -55 67 -112 65 -101 146 -225 208 -322 18 -27 61 -95 95 -150 35 -55
67 -101 72 -103 4 -2 8 -7 8 -12 0 -12 222 -364 232 -368 4 -2 8 -8 8 -13 0
-9 100 -173 120 -196 5 -7 10 -15 10 -18 0 -3 33 -59 73 -123 101 -161 278
-450 347 -567 13 -22 28 -41 32 -43 4 -2 8 -8 8 -13 0 -9 266 -461 301 -511
10 -15 19 -29 19 -31 0 -2 37 -67 81 -143 45 -76 93 -159 107 -184 13 -25 28
-49 32 -55 4 -5 20 -32 35 -60 32 -57 91 -163 105 -185 5 -8 25 -44 45 -80
l36 -65 -5 45 c-5 43 -10 73 -21 130 -9 42 -13 66 -19 101 -3 19 -8 45 -11 59
-3 14 -7 39 -10 55 -5 32 -12 74 -20 115 -13 64 -16 77 -20 105 -3 17 -8 44
-12 60 -3 17 -7 37 -8 45 -3 17 -13 73 -20 110 -12 57 -15 76 -20 105 -3 17
-8 37 -10 45 -3 8 -7 31 -9 50 -4 30 -11 67 -30 155 -2 11 -7 40 -12 65 -4 25
-8 47 -9 50 0 3 -4 21 -8 40 -4 19 -9 46 -12 60 -3 14 -8 41 -11 60 -3 19 -7
43 -10 52 -5 16 -9 36 -19 88 -3 14 -7 36 -10 50 -6 28 -12 60 -20 110 -3 19
-8 43 -11 53 -3 10 -7 31 -9 48 -3 17 -7 38 -9 48 -3 9 -8 30 -11 46 -2 17 -7
41 -10 55 -3 14 -8 39 -11 55 -2 17 -9 46 -14 65 -10 38 -17 75 -26 130 -3 19
-7 43 -10 52 -3 9 -7 27 -9 40 -3 13 -7 34 -10 48 -6 26 -12 57 -20 100 -3 14
-7 34 -9 45 -23 106 -38 176 -42 205 -3 19 -8 38 -10 41 -2 3 -6 21 -9 40 -3
19 -10 52 -15 74 -5 22 -12 56 -15 75 -3 19 -8 43 -11 52 -3 9 -7 27 -9 40 -3
13 -7 34 -10 48 -3 14 -8 36 -11 50 -3 14 -7 36 -10 50 -2 14 -7 36 -10 50
-11 48 -15 65 -20 90 -3 14 -11 53 -19 86 -14 61 -20 88 -30 142 -3 15 -10 43
-15 62 -5 19 -12 49 -14 65 -9 48 -15 75 -20 93 -3 9 -8 33 -11 52 -3 19 -12
60 -20 90 -8 30 -16 66 -19 80 -2 14 -12 57 -21 95 -9 39 -19 81 -21 95 -3 14
-12 54 -20 90 -9 36 -17 72 -19 80 -6 30 -56 245 -59 255 -2 6 -6 28 -10 50
-5 22 -15 67 -23 100 -8 33 -17 68 -19 77 -2 10 -6 26 -8 35 -16 67 -28 121
-32 142 -3 14 -7 28 -9 31 -2 4 -7 22 -10 41 -3 19 -11 52 -16 74 -6 22 -12
47 -14 55 -2 8 -15 62 -30 120 -14 58 -28 114 -30 125 -4 21 -19 83 -30 125
-3 14 -8 34 -10 45 -4 15 -159 633 -180 715 -2 8 -11 44 -20 80 -8 36 -18 72
-20 80 -2 8 -11 42 -20 75 -8 33 -18 68 -20 78 -6 20 -13 49 -19 75 -2 9 -14
53 -26 97 -12 44 -23 88 -26 97 -2 10 -6 26 -9 35 -9 37 -26 99 -29 113 -2 8
-12 42 -21 75 -9 33 -20 76 -25 95 -5 19 -14 53 -20 75 -6 22 -12 47 -15 55
-69 257 -95 350 -104 372 -6 16 -8 28 -6 28 3 0 -1 16 -9 35 -8 19 -13 35 -11
35 3 0 0 12 -6 28 -6 15 -12 34 -14 42 -7 36 -27 107 -36 130 -5 14 -11 34
-13 45 -2 11 -18 70 -36 130 -17 61 -49 171 -70 245 -21 74 -52 182 -70 240
-39 132 -89 300 -95 320 -2 8 -16 53 -30 100 -47 155 -65 215 -69 230 -5 17
-30 99 -58 185 -11 33 -21 68 -23 77 -2 9 -8 25 -14 36 -6 11 -7 23 -3 27 4 5
1 5 -5 1 -7 -4 -13 -18 -13 -31 0 -13 -4 -34 -9 -48 -5 -13 -12 -39 -15 -59
-3 -19 -8 -41 -10 -49 -3 -8 -8 -27 -11 -44 -3 -16 -8 -39 -10 -50 -3 -11 -7
-30 -9 -43 -3 -12 -7 -26 -10 -30 -3 -5 -8 -24 -11 -43 -3 -19 -8 -42 -11 -51
-3 -9 -7 -25 -9 -35 -2 -10 -8 -33 -14 -50 -5 -18 -8 -33 -5 -33 3 0 0 -8 -5
-18 -6 -11 -12 -30 -15 -43 -14 -65 -88 -318 -128 -434 -17 -49 -31 -94 -33
-100 -1 -5 -5 -17 -8 -25 -5 -14 -30 -89 -32 -100 -1 -3 -5 -14 -9 -25 -5 -11
-17 -45 -28 -75 -12 -30 -24 -64 -29 -75 -4 -11 -24 -63 -44 -115 -21 -52 -48
-120 -62 -150 -14 -30 -26 -60 -27 -65 -6 -37 -304 -630 -313 -622 -1 2 6 35
17 73 11 38 23 82 26 98 2 16 7 32 9 36 2 3 6 17 9 31 2 13 17 76 31 139 28
121 32 140 40 180 5 25 7 36 25 125 5 28 12 64 14 80 12 76 17 102 21 125 3
14 7 39 9 55 14 87 19 122 21 142 2 13 6 40 9 60 3 21 8 58 11 83 4 25 8 56
10 70 2 14 6 50 9 80 3 30 8 74 11 98 7 67 14 141 20 217 3 39 8 92 10 118 4
48 14 204 21 322 21 410 21 1131 -1 1540 -2 39 -6 117 -9 175 -17 326 -16 319
-66 445 -15 38 -44 120 -45 125 0 3 -8 28 -19 55 -10 28 -28 79 -41 115 -63
175 -107 297 -115 315 -5 11 -45 119 -90 240 -44 121 -85 229 -90 240 -5 11
-21 52 -35 90 -34 92 -55 144 -68 175 -6 14 -11 30 -13 35 -2 9 -94 247 -113
290 -4 11 -13 31 -19 45 -11 25 -97 241 -134 335 -11 28 -24 56 -30 63 -6 6
-8 12 -5 12 5 0 -22 70 -68 175 -44 99 -105 245 -105 249 0 2 -14 35 -31 73
-38 84 -38 85 -93 213 -24 58 -58 134 -74 170 -16 36 -44 99 -62 140 -18 41
-43 98 -55 125 -13 28 -43 95 -68 150 -135 299 -307 662 -516 1085 -135 273
-352 696 -461 895 -15 28 -47 86 -70 130 -39 73 -89 164 -165 300 -16 28 -36
64 -45 80 -33 59 -141 250 -150 265 -10 15 -58 99 -92 159 -78 138 -271 456
-430 711 -192 307 -211 335 -219 338 -5 2 -9 8 -9 13 0 11 -151 243 -162 247
-4 2 -8 8 -8 14 0 6 -11 26 -25 44 -14 18 -25 37 -25 42 0 6 -4 12 -8 14 -4 2
-41 53 -82 113 -40 61 -77 112 -82 113 -4 2 -8 8 -8 12 0 19 -400 577 -638
890 -304 399 -794 999 -998 1220 -23 25 -86 95 -139 155 -256 288 -825 876
-1061 1095 -33 30 -118 110 -189 176 -217 203 -514 464 -750 659 -66 55 -122
102 -125 105 -3 3 -75 61 -160 128 -85 68 -162 129 -170 135 -137 110 -516
391 -770 569 -288 202 -866 578 -888 578 -6 0 -12 4 -14 8 -1 4 -19 17 -38 28
-63 38 -275 164 -290 174 -38 23 -181 105 -230 132 -30 17 -59 33 -65 38 -5 4
-44 25 -85 47 -41 22 -95 52 -120 65 -179 99 -472 250 -476 245 -5 -4 87 -151
98 -155 4 -2 8 -8 8 -13 0 -6 16 -36 37 -67 80 -126 293 -478 398 -657 32 -55
68 -117 81 -137 13 -21 24 -39 24 -41 0 -2 23 -44 51 -93 29 -49 63 -109 77
-134 14 -25 41 -74 62 -110 20 -36 53 -95 74 -132 20 -38 51 -96 70 -130 99
-182 152 -285 324 -628 187 -375 216 -435 312 -650 28 -63 62 -137 75 -165 12
-27 37 -84 54 -125 18 -41 36 -84 41 -95 37 -80 140 -339 140 -351 0 -8 4 -14
10 -14 5 0 9 -3 8 -7 0 -5 2 -17 7 -28 4 -11 20 -56 37 -100 16 -44 33 -89 38
-100 7 -17 20 -49 25 -65 1 -3 4 -12 8 -20 11 -28 69 -195 88 -255 11 -33 23
-67 26 -75 3 -8 7 -21 9 -28 1 -8 6 -21 10 -30 4 -9 8 -19 9 -22 4 -15 48
-157 53 -170 6 -18 1 0 62 -210 29 -96 53 -183 56 -192 2 -10 6 -26 8 -35 2
-10 16 -65 31 -123 15 -58 29 -116 31 -130 3 -14 9 -40 15 -58 6 -18 12 -43
13 -55 2 -12 6 -31 9 -42 3 -11 8 -32 11 -48 3 -15 7 -35 10 -45 3 -9 7 -33
10 -52 3 -19 8 -46 11 -60 8 -36 17 -93 30 -172 3 -18 7 -44 10 -58 8 -43 26
-165 30 -200 7 -71 17 -157 20 -172 14 -69 42 -568 32 -558 -4 4 -26 77 -42
140 -2 8 -8 29 -15 45 -6 17 -11 30 -10 30 9 0 -57 200 -165 505 -27 76 -144
368 -170 425 -14 30 -25 56 -25 59 0 3 -17 43 -38 88 -21 46 -52 112 -68 148
-38 86 -260 530 -322 645 -86 161 -291 522 -331 585 -34 53 -42 66 -54 90 -6
14 -15 30 -20 35 -4 6 -65 102 -135 215 -121 194 -327 508 -450 685 -147 212
-429 604 -475 660 -4 6 -26 35 -48 65 -65 88 -69 93 -260 340 -151 194 -316
402 -401 505 -232 281 -376 455 -394 475 -12 14 -80 93 -151 175 -144 169
-495 568 -588 669 -63 68 -157 170 -189 206 -260 285 -846 898 -1063 1113 -90
89 -93 91 -185 120 -51 16 -128 40 -170 53 -185 58 -244 76 -258 79 -8 2 -62
18 -120 35 -58 17 -112 33 -120 35 -8 2 -40 11 -70 20 -59 18 -110 32 -177 50
-10 2 -52 14 -93 25 -79 22 -99 27 -127 34 -10 3 -63 17 -118 31 -55 15 -107
29 -115 31 -8 2 -44 11 -80 19 -36 9 -73 18 -82 21 -10 2 -27 6 -38 9 -11 3
-28 7 -37 9 -10 2 -67 16 -128 31 -60 15 -117 28 -125 30 -8 2 -33 8 -55 14
-22 5 -56 13 -75 16 -19 3 -43 8 -52 11 -9 3 -25 7 -35 9 -10 2 -52 11 -93 20
-41 9 -86 19 -100 21 -14 3 -32 7 -40 9 -8 3 -33 7 -55 11 -22 3 -43 8 -46 10
-3 2 -19 6 -35 8 -16 3 -38 8 -49 10 -11 3 -69 14 -130 26 -60 12 -119 24
-130 26 -11 2 -31 6 -45 9 -14 3 -36 7 -50 10 -14 3 -38 7 -55 10 -16 3 -41 8
-55 10 -38 8 -70 14 -130 25 -30 6 -66 12 -80 15 -14 3 -42 7 -62 10 -20 3
-56 9 -80 14 -24 5 -61 12 -83 15 -22 4 -65 11 -95 16 -30 5 -71 12 -90 15
-19 3 -48 8 -65 11 -59 10 -85 14 -112 18 -38 6 -114 18 -138 21 -11 2 -39 6
-62 9 -23 4 -55 9 -70 11 -15 2 -41 6 -58 9 -16 3 -50 7 -75 10 -25 3 -54 8
-66 10 -12 2 -45 7 -75 11 -30 3 -61 8 -69 10 -8 2 -40 6 -70 10 -30 3 -66 7
-80 10 -14 3 -50 7 -80 10 -30 3 -66 8 -80 10 -36 6 -141 20 -240 30 -56 7
-135 16 -175 21 -16 2 -57 6 -90 10 -33 3 -71 7 -85 9 -33 4 -145 16 -195 20
-22 2 -64 6 -92 9 -97 11 -158 17 -208 21 -69 6 -172 16 -220 21 -22 2 -74 6
-115 9 -41 3 -95 8 -120 10 -41 4 -125 10 -265 20 -27 2 -90 7 -140 10 -49 3
-115 8 -145 10 -84 6 -368 24 -485 30 -152 8 -360 18 -430 20 -38 1 -155 6
-260 10 -218 9 -266 10 -730 20 -303 7 -1373 14 -1378 9z"/>
<path d="M427 37714 c-2 -2 -292 -12 -380 -13 -46 -1 -41 -16 7 -25 19 -4 130
-34 248 -67 117 -33 220 -62 228 -64 140 -36 843 -278 985 -339 39 -17 99 -41
105 -42 3 0 16 -5 30 -11 14 -6 54 -23 90 -37 36 -15 79 -33 95 -41 17 -7 64
-27 105 -45 41 -17 103 -45 138 -61 35 -16 65 -29 67 -29 9 0 144 -65 410
-196 269 -133 370 -186 560 -292 135 -75 147 -82 248 -141 49 -28 91 -51 93
-51 3 0 10 -5 17 -10 7 -6 68 -45 137 -87 248 -151 742 -477 748 -494 2 -5 8
-9 13 -9 7 0 198 -134 254 -178 6 -4 55 -41 110 -82 216 -160 733 -576 870
-701 17 -15 68 -60 115 -100 47 -41 108 -95 135 -120 28 -25 69 -64 93 -85
148 -132 258 -238 527 -505 430 -426 679 -690 1035 -1099 84 -96 164 -188 179
-205 14 -16 44 -52 66 -80 22 -27 43 -52 46 -55 31 -26 513 -626 714 -890 82
-107 152 -197 155 -200 3 -3 53 -70 110 -149 58 -79 150 -205 205 -280 55 -76
111 -154 125 -174 23 -33 53 -49 120 -61 8 -1 35 -8 60 -15 25 -7 53 -15 64
-17 10 -2 33 -8 51 -14 18 -6 41 -12 51 -15 10 -2 73 -18 139 -35 66 -17 128
-33 138 -35 10 -2 27 -7 37 -10 10 -3 28 -8 39 -10 12 -3 30 -7 41 -10 11 -3
29 -7 41 -10 11 -2 29 -7 39 -10 10 -3 27 -7 37 -9 10 -2 47 -12 83 -21 36 -9
73 -19 83 -21 10 -2 27 -6 37 -9 10 -3 27 -8 37 -10 10 -2 68 -15 128 -30 61
-15 115 -28 120 -29 6 -1 19 -5 30 -9 11 -3 31 -8 45 -11 14 -2 61 -13 105
-24 44 -12 91 -23 105 -26 14 -3 34 -7 45 -10 99 -24 245 -58 266 -61 14 -2
38 -9 52 -14 15 -6 27 -9 27 -6 0 2 18 -2 40 -10 22 -8 40 -12 40 -10 0 2 21
-2 48 -10 26 -8 58 -16 72 -19 14 -3 35 -7 48 -10 12 -4 30 -8 40 -10 9 -2 49
-12 87 -21 39 -9 77 -18 85 -20 8 -2 63 -15 123 -29 59 -14 155 -38 215 -52
59 -14 115 -27 125 -29 10 -2 27 -7 37 -10 10 -3 27 -8 37 -10 10 -2 47 -11
83 -20 36 -8 73 -18 83 -20 10 -2 26 -6 35 -9 9 -3 28 -7 42 -10 14 -3 124
-30 245 -61 222 -57 239 -61 275 -70 46 -11 56 -14 88 -24 17 -5 32 -8 32 -5
0 3 8 0 18 -5 11 -6 30 -12 43 -15 13 -3 51 -13 84 -22 33 -9 68 -18 78 -19 9
-2 21 -6 25 -9 5 -3 19 -7 33 -10 13 -2 58 -14 99 -26 41 -11 82 -23 90 -25
23 -6 257 -75 330 -97 36 -11 70 -21 75 -22 6 -2 17 -5 25 -8 8 -3 76 -25 150
-48 216 -68 472 -156 625 -215 39 -15 75 -28 80 -29 6 -1 27 -10 49 -19 21 -9
42 -17 46 -17 4 0 21 -7 39 -16 17 -9 37 -17 44 -18 7 -1 17 -4 22 -7 6 -4 51
-23 100 -44 286 -119 553 -251 820 -405 170 -99 529 -356 624 -449 15 -14 43
-40 62 -57 18 -17 72 -70 119 -118 l85 -87 -50 19 c-57 23 -95 38 -144 59 -18
9 -39 16 -45 18 -12 2 -56 19 -176 67 -39 16 -244 89 -255 92 -5 1 -30 9 -55
18 -163 60 -496 169 -635 208 -22 6 -55 16 -72 21 -76 21 -154 43 -270 75
-122 33 -411 106 -478 120 -38 9 -79 18 -90 20 -11 3 -29 7 -40 9 -11 3 -29 7
-40 9 -42 10 -221 47 -245 51 -32 6 -68 13 -100 20 -14 3 -41 8 -60 11 -19 3
-42 7 -51 10 -9 2 -32 7 -50 9 -19 3 -45 7 -59 10 -51 11 -155 28 -235 40 -23
3 -50 7 -60 9 -11 2 -45 7 -75 11 -30 5 -62 9 -70 11 -23 3 -100 13 -145 19
-22 3 -56 8 -76 11 -20 2 -56 7 -80 9 -24 2 -64 7 -89 10 -25 3 -65 8 -90 10
-25 3 -67 7 -95 10 -84 9 -249 24 -330 30 -383 28 -675 39 -1100 39 -299 0
-646 -8 -790 -19 -70 -5 -279 -18 -302 -18 -31 -1 -29 -11 12 -68 19 -27 35
-51 35 -53 0 -2 27 -46 60 -97 33 -52 63 -101 67 -109 4 -8 45 -75 91 -150 47
-74 101 -162 120 -195 20 -33 38 -62 41 -65 3 -3 13 -19 22 -35 20 -37 265
-446 276 -461 4 -5 13 -19 19 -30 9 -17 133 -229 155 -264 10 -17 63 -109 92
-160 53 -95 72 -125 79 -128 4 -2 8 -12 8 -22 0 -10 4 -20 8 -22 8 -3 182
-304 182 -315 0 -4 6 -14 14 -22 7 -9 25 -36 39 -61 13 -25 53 -94 87 -155 34
-60 78 -139 97 -175 20 -36 39 -69 43 -75 4 -5 20 -32 35 -60 15 -27 81 -147
147 -265 153 -273 261 -468 303 -545 18 -33 70 -127 116 -210 45 -82 94 -172
109 -200 15 -27 42 -77 60 -110 18 -33 49 -89 68 -125 19 -36 60 -110 90 -165
66 -120 103 -189 149 -275 20 -36 46 -83 58 -105 82 -145 285 -527 285 -535 0
-6 4 -10 9 -10 5 0 12 -11 15 -24 3 -14 12 -31 19 -38 6 -8 25 -38 40 -68 51
-100 150 -284 179 -333 15 -26 28 -50 28 -53 0 -2 20 -39 43 -82 41 -71 74
-132 165 -302 19 -36 43 -78 52 -95 10 -16 34 -61 55 -100 47 -88 82 -151 213
-390 58 -104 121 -219 140 -255 19 -36 85 -155 147 -265 62 -110 127 -227 145
-260 18 -33 51 -91 73 -130 22 -38 53 -95 70 -125 16 -30 56 -100 87 -155 32
-55 67 -117 79 -137 46 -81 62 -110 171 -298 62 -107 118 -205 124 -217 6 -13
14 -23 19 -23 4 0 7 -5 7 -11 0 -9 83 -154 217 -376 23 -40 43 -77 43 -83 0
-5 4 -10 8 -10 5 0 18 -17 29 -38 19 -36 182 -305 298 -494 28 -44 55 -88 60
-97 67 -109 111 -177 117 -179 5 -2 8 -8 8 -13 0 -8 47 -87 60 -99 3 -3 11
-15 18 -27 6 -13 18 -33 25 -45 6 -13 15 -25 18 -28 4 -3 32 -45 62 -95 67
-107 97 -145 117 -149 8 -2 29 -9 45 -15 60 -25 352 -133 425 -158 41 -14 89
-31 105 -38 17 -8 42 -16 57 -19 14 -2 37 -10 50 -17 12 -7 24 -12 25 -11 2 1
8 0 15 -3 48 -15 84 -25 90 -26 4 0 31 -9 60 -20 29 -11 64 -22 77 -25 14 -3
28 -7 33 -10 4 -3 16 -7 25 -9 10 -3 79 -23 153 -46 74 -22 140 -42 145 -43 6
-1 26 -7 45 -14 19 -6 46 -13 60 -16 14 -2 37 -9 53 -15 15 -6 27 -8 27 -6 0
2 12 0 28 -6 15 -6 36 -13 47 -15 23 -6 26 -7 85 -23 25 -7 52 -15 60 -17 8
-1 102 -25 208 -53 105 -27 192 -47 192 -45 0 3 8 0 18 -5 9 -5 35 -12 57 -15
22 -4 48 -9 57 -12 9 -3 25 -7 35 -9 10 -2 50 -11 88 -20 39 -9 79 -19 89 -21
11 -2 74 -16 140 -30 67 -15 131 -28 143 -29 11 -2 29 -6 40 -9 10 -3 34 -8
53 -11 19 -3 42 -8 50 -10 8 -2 31 -7 50 -10 19 -3 42 -8 50 -10 8 -2 29 -7
45 -9 17 -3 84 -17 150 -30 66 -14 136 -27 155 -30 19 -3 46 -8 60 -11 34 -7
68 -13 114 -20 21 -4 48 -9 60 -11 38 -8 80 -15 106 -19 14 -2 50 -8 80 -14
30 -6 70 -13 88 -16 17 -3 47 -7 65 -10 17 -3 46 -8 62 -11 17 -2 41 -6 55 -9
14 -3 40 -7 58 -10 56 -9 95 -15 152 -25 30 -5 70 -12 88 -15 17 -3 44 -7 60
-10 15 -2 47 -7 72 -11 57 -8 76 -11 120 -19 19 -3 51 -8 70 -10 19 -3 46 -7
60 -10 14 -3 43 -7 65 -10 45 -6 76 -11 120 -19 17 -2 50 -8 75 -11 25 -3 52
-8 60 -10 8 -2 38 -7 65 -11 28 -3 57 -7 65 -9 8 -1 42 -5 75 -10 33 -4 69 -9
80 -12 11 -2 36 -6 55 -8 66 -9 106 -15 130 -20 13 -3 42 -7 65 -10 39 -6 66
-10 123 -20 15 -2 50 -7 77 -11 28 -3 59 -8 70 -10 10 -2 37 -6 60 -9 22 -4
54 -8 70 -11 17 -3 46 -7 65 -10 19 -2 60 -9 90 -14 80 -14 110 -19 160 -26
52 -7 73 -10 115 -18 17 -2 48 -7 70 -11 23 -3 52 -7 65 -10 13 -3 40 -7 60
-10 20 -3 47 -7 60 -10 13 -3 42 -7 65 -10 22 -3 47 -8 55 -10 8 -2 33 -6 55
-10 54 -8 89 -14 160 -27 33 -6 69 -12 80 -13 11 -2 32 -6 48 -9 27 -5 114
-21 172 -31 17 -2 41 -7 55 -10 14 -3 39 -7 55 -10 17 -3 41 -8 55 -10 14 -3
36 -8 50 -10 14 -3 39 -8 55 -11 17 -4 40 -8 52 -9 11 -2 30 -6 41 -9 11 -4
33 -8 48 -11 26 -3 257 -51 294 -60 8 -2 58 -13 110 -25 122 -27 104 -23 260
-60 126 -30 221 -54 263 -65 9 -3 25 -7 35 -9 15 -4 56 -15 242 -67 19 -5 42
-11 50 -14 8 -2 69 -20 135 -40 66 -20 125 -38 130 -39 6 -2 17 -5 25 -8 8 -3
51 -17 95 -31 44 -14 139 -47 210 -72 72 -25 135 -47 142 -49 7 -1 16 -5 19
-9 4 -4 14 -7 21 -7 8 0 33 -8 56 -18 87 -38 155 -63 160 -60 1 1 16 -5 32
-14 17 -9 46 -23 65 -31 19 -9 61 -27 94 -41 32 -14 65 -26 72 -26 8 0 14 -4
14 -10 0 -5 6 -10 13 -10 20 0 386 -179 532 -260 58 -32 80 -44 162 -91 114
-64 485 -307 503 -328 3 -4 18 -15 35 -25 33 -21 272 -209 320 -251 17 -15 67
-59 112 -98 45 -39 81 -73 79 -75 -2 -1 -30 9 -62 24 -114 52 -352 134 -462
159 -9 2 -53 13 -97 24 -44 10 -93 22 -110 25 -42 7 -85 15 -120 23 -16 3 -39
7 -50 9 -11 1 -33 5 -50 7 -16 3 -52 9 -80 12 -27 4 -61 9 -75 11 -58 8 -179
21 -287 30 -43 3 -96 8 -118 10 -226 20 -1136 26 -1520 10 -110 -4 -231 -9
-270 -11 -83 -3 -296 -14 -415 -21 -260 -15 -459 -26 -500 -29 -19 -1 -91 -6
-160 -10 -69 -4 -141 -9 -160 -10 -19 -1 -89 -6 -155 -9 -66 -4 -137 -9 -157
-11 -21 -2 -84 -7 -140 -10 -57 -3 -130 -7 -163 -9 -72 -6 -267 -18 -485 -31
-58 -3 -130 -8 -160 -10 -30 -2 -100 -6 -155 -10 -218 -12 -293 -16 -360 -20
-38 -2 -124 -7 -190 -10 -66 -3 -156 -8 -200 -10 -156 -8 -351 -17 -425 -20
-518 -20 -473 -19 -955 -31 -181 -4 -480 -8 -662 -8 -216 -1 -333 -4 -332 -11
0 -5 29 -32 64 -60 34 -27 116 -93 181 -146 66 -53 207 -160 314 -238 107 -78
200 -145 205 -149 17 -14 165 -116 183 -127 9 -5 19 -13 22 -16 6 -8 613 -414
710 -476 224 -142 292 -183 300 -183 4 0 10 -4 12 -8 2 -4 32 -26 68 -47 36
-21 67 -41 70 -44 4 -5 35 -23 95 -55 11 -6 22 -14 25 -17 3 -3 24 -17 47 -30
23 -13 127 -74 230 -136 204 -121 370 -216 588 -338 77 -43 156 -87 175 -98
19 -11 78 -42 130 -70 52 -27 100 -53 105 -57 11 -8 162 -88 275 -146 41 -22
77 -41 80 -44 10 -10 1080 -547 1095 -550 3 0 69 -31 147 -69 79 -37 168 -79
198 -93 30 -15 93 -44 140 -66 47 -22 108 -50 135 -62 28 -13 92 -42 143 -66
52 -24 96 -44 99 -44 2 0 42 -18 89 -40 47 -22 87 -40 89 -40 3 0 43 -18 90
-40 47 -22 88 -40 90 -40 5 0 23 -8 160 -70 39 -18 75 -33 80 -34 6 -1 15 -4
20 -8 12 -7 431 -185 455 -193 3 -1 28 -12 55 -24 28 -13 55 -24 60 -26 10 -2
50 -18 130 -53 21 -9 42 -17 45 -18 3 0 16 -6 30 -12 14 -6 53 -22 87 -36 35
-14 91 -38 125 -52 35 -14 68 -27 73 -28 6 -1 28 -10 50 -20 38 -17 144 -59
155 -61 3 -1 16 -6 30 -12 54 -23 368 -146 420 -164 30 -11 64 -24 75 -29 32
-14 284 -110 300 -114 6 -2 21 -7 35 -13 14 -6 95 -36 180 -67 85 -32 171 -63
190 -71 55 -21 135 -50 140 -50 6 0 204 -73 235 -85 24 -10 165 -61 180 -64 6
-2 21 -8 35 -13 14 -6 86 -31 160 -56 74 -25 248 -85 385 -132 138 -47 255
-88 260 -89 6 -2 17 -6 25 -9 25 -9 84 -27 95 -28 6 0 15 -4 20 -8 9 -7 21
-11 80 -27 6 -1 98 -31 205 -67 254 -84 481 -158 500 -162 8 -2 66 -20 129
-40 63 -20 122 -38 130 -40 9 -2 57 -17 106 -33 50 -16 137 -44 195 -61 58
-18 116 -36 130 -41 46 -15 172 -52 184 -54 6 -1 17 -5 24 -9 6 -5 12 -6 12
-3 0 3 15 -1 33 -9 17 -7 34 -13 37 -13 3 -1 12 -3 20 -6 29 -9 235 -68 250
-71 8 -2 29 -8 45 -15 17 -6 30 -11 30 -10 0 1 33 -8 74 -20 41 -12 81 -23 90
-25 9 -2 63 -18 121 -35 58 -17 112 -32 120 -34 26 -5 103 -27 147 -41 23 -8
52 -17 65 -19 13 -3 97 -26 188 -52 188 -52 269 -74 290 -80 15 -3 80 -21 110
-29 8 -2 49 -13 90 -23 41 -11 111 -30 155 -42 44 -12 87 -24 95 -26 8 -2 87
-22 175 -45 88 -22 167 -42 175 -44 8 -2 132 -33 275 -70 143 -36 269 -67 280
-69 11 -2 40 -9 65 -16 25 -7 52 -13 60 -15 8 -2 65 -15 125 -30 233 -56 281
-67 305 -71 14 -3 33 -7 42 -10 18 -5 47 -12 88 -20 14 -3 33 -7 42 -10 10 -3
30 -7 45 -10 16 -3 42 -9 58 -14 17 -5 48 -12 70 -16 22 -3 43 -8 46 -10 3 -2
19 -6 35 -8 42 -8 61 -12 137 -30 37 -9 82 -18 100 -21 17 -3 39 -8 47 -10 8
-2 26 -6 40 -9 14 -3 36 -8 50 -11 14 -3 39 -8 55 -11 17 -2 44 -9 61 -13 18
-5 38 -5 45 0 8 5 9 9 3 9 -6 0 -20 17 -32 37 -11 21 -28 47 -36 58 -9 11
-108 155 -220 320 -309 453 -389 570 -398 573 -4 2 -8 8 -8 13 0 11 -221 333
-232 337 -4 2 -8 8 -8 12 0 8 -61 102 -87 135 -5 6 -64 91 -133 190 -68 99
-128 182 -132 183 -4 2 -8 8 -8 14 0 11 -51 81 -62 86 -5 2 -8 8 -8 12 0 12
-300 444 -311 448 -5 2 -9 8 -9 12 0 7 -217 321 -355 515 -8 11 -51 72 -95
135 -45 63 -88 124 -96 135 -7 11 -31 45 -52 75 -88 125 -393 556 -499 703
-62 86 -113 159 -113 162 0 3 -7 13 -15 22 -8 10 -89 122 -179 248 -91 127
-168 235 -173 240 -5 6 -31 42 -58 80 -27 39 -53 75 -58 80 -4 6 -41 57 -82
115 -40 58 -87 123 -104 145 -17 22 -83 112 -146 200 -63 88 -125 173 -137
189 -13 16 -36 48 -53 72 -35 50 -205 284 -217 299 -5 6 -43 58 -86 116 -115
159 -402 549 -414 564 -5 6 -26 35 -48 65 -22 30 -43 60 -48 65 -4 6 -86 115
-181 244 -95 129 -177 239 -182 245 -6 6 -115 151 -243 323 -128 172 -245 327
-259 345 -14 18 -126 166 -248 328 -122 162 -225 297 -228 300 -3 3 -38 48
-77 100 -39 52 -109 145 -156 205 -125 164 -391 508 -405 525 -7 8 -69 89
-140 180 -70 91 -130 167 -133 170 -3 3 -25 32 -50 65 -41 54 -278 357 -455
580 -348 439 -420 531 -425 535 -3 3 -17 21 -32 42 -15 20 -33 42 -40 50 -7 7
-29 34 -48 58 -19 25 -40 52 -47 60 -7 8 -110 137 -230 285 -119 149 -320 396
-446 550 -125 154 -234 287 -240 295 -49 60 -793 954 -830 997 -14 15 -80 93
-147 173 -67 80 -131 156 -143 170 -47 55 -132 155 -140 165 -11 15 -46 55
-94 109 -24 26 -43 51 -43 57 0 5 -4 9 -8 9 -5 0 -30 27 -58 61 -27 34 -58 71
-70 82 -11 12 -104 119 -205 237 -101 118 -186 217 -189 220 -3 3 -50 57 -105
120 -55 63 -102 117 -105 120 -3 3 -35 39 -70 80 -36 41 -67 77 -70 80 -3 3
-39 43 -80 90 -41 47 -91 103 -111 125 -20 22 -75 85 -123 140 -48 55 -102
116 -120 135 -18 19 -95 105 -170 190 -76 85 -155 173 -175 195 -21 22 -131
144 -246 270 -115 127 -226 248 -246 270 -21 22 -51 54 -65 70 -32 36 -114
125 -203 221 -36 39 -118 126 -181 194 -154 166 -247 265 -356 380 -50 52
-104 109 -120 126 -28 30 -221 233 -404 424 -379 396 -1297 1321 -1656 1669
-499 483 -921 883 -1224 1161 -58 52 -127 116 -155 142 -64 60 -49 47 -255
233 -96 87 -179 163 -185 169 -5 6 -28 26 -50 45 -41 35 -167 147 -240 213
-46 42 -421 370 -575 503 -180 155 -502 429 -660 559 -85 71 -175 146 -200
166 -37 31 -243 200 -390 320 -19 16 -109 88 -200 160 -91 72 -174 138 -185
148 -11 9 -123 97 -250 195 -126 98 -239 186 -250 195 -54 46 -902 676 -1085
807 -116 83 -245 175 -287 206 -43 30 -123 86 -178 124 -202 139 -260 179
-270 187 -5 5 -28 20 -50 35 -22 14 -116 77 -208 140 -92 62 -172 113 -177
113 -6 0 -10 4 -10 8 0 5 -12 15 -27 23 -16 8 -30 16 -33 19 -11 13 -241 160
-250 160 -4 0 -10 4 -12 8 -4 11 -254 172 -266 172 -6 0 -12 4 -14 9 -5 13
-630 401 -647 401 -5 0 -11 4 -13 8 -2 6 -191 122 -273 168 -11 6 -55 32 -98
58 -43 25 -82 46 -86 46 -5 0 -11 3 -13 8 -4 9 -184 112 -197 112 -5 0 -11 4
-13 8 -1 5 -70 46 -153 92 -82 46 -177 98 -210 117 -33 19 -80 44 -105 56 -25
12 -47 25 -50 28 -3 3 -18 12 -35 20 -16 9 -55 29 -85 46 -174 96 -553 293
-835 432 -257 127 -595 291 -600 291 -2 0 -57 25 -122 56 -65 30 -149 69 -188
86 -38 17 -103 46 -143 64 -41 19 -75 34 -78 34 -2 0 -23 9 -47 19 -23 11 -73
33 -110 50 -38 17 -71 31 -73 31 -3 0 -30 11 -60 25 -30 14 -57 25 -60 25 -3
0 -24 9 -47 19 -72 33 -291 122 -308 126 -9 2 -25 8 -35 13 -29 16 -273 113
-294 118 -3 0 -12 4 -20 7 -25 11 -284 109 -295 111 -10 3 -27 9 -80 29 -16 7
-32 12 -35 13 -3 0 -18 6 -33 12 -16 7 -34 12 -41 12 -7 0 -16 3 -20 8 -4 4
-11 7 -14 8 -4 0 -14 3 -22 7 -24 9 -164 59 -175 61 -5 2 -17 6 -25 9 -20 8
-412 139 -425 141 -17 4 -218 68 -257 82 -21 8 -38 11 -38 8 0 -4 -7 -1 -15 6
-8 7 -15 9 -15 6 0 -4 -8 -2 -18 3 -11 6 -30 12 -43 15 -13 3 -71 19 -129 37
-58 17 -109 32 -115 34 -5 1 -17 5 -25 8 -13 4 -42 12 -85 22 -5 2 -51 15
-101 29 -50 15 -101 29 -113 31 -11 3 -29 7 -40 9 -10 2 -49 13 -87 24 -59 17
-110 30 -186 48 -18 4 -42 10 -75 18 -10 3 -33 9 -50 15 -18 5 -33 8 -33 5 0
-3 -8 -1 -17 5 -10 5 -37 11 -61 15 -24 3 -47 8 -51 10 -7 5 -24 9 -86 21 -16
3 -38 8 -47 11 -9 3 -27 7 -40 9 -13 3 -36 8 -53 12 -16 4 -32 7 -35 8 -3 1
-18 4 -35 8 -16 4 -41 9 -55 12 -14 3 -36 7 -50 10 -14 3 -35 7 -48 10 -13 2
-31 6 -40 9 -9 3 -30 8 -47 11 -16 2 -41 7 -55 10 -53 11 -86 17 -105 20 -22
3 -65 12 -105 20 -14 3 -38 8 -55 10 -16 3 -37 8 -45 10 -8 2 -33 7 -55 10
-23 3 -52 8 -65 10 -14 3 -41 8 -60 11 -50 8 -81 13 -110 19 -13 2 -40 7 -60
10 -20 3 -45 7 -55 9 -11 2 -40 7 -65 10 -25 3 -56 8 -69 11 -14 2 -47 7 -75
10 -28 3 -58 8 -66 10 -8 2 -37 6 -65 10 -27 3 -66 8 -85 10 -19 3 -51 7 -70
10 -19 2 -48 6 -65 9 -16 3 -57 8 -90 12 -33 3 -71 8 -85 9 -14 2 -54 6 -90
10 -36 4 -76 8 -90 10 -14 2 -59 6 -100 10 -41 4 -88 9 -105 10 -16 2 -68 7
-115 10 -47 4 -101 8 -120 10 -39 4 -172 14 -270 20 -64 4 -176 10 -400 21
-109 5 -1028 13 -1033 8z"/>
<path d="M14406 34052 c5 -5 72 -64 149 -131 167 -147 174 -153 245 -217 68
-60 132 -116 415 -364 121 -105 234 -204 250 -219 17 -14 125 -109 240 -211
116 -101 253 -222 305 -269 116 -103 122 -108 345 -306 99 -87 198 -176 220
-196 22 -20 90 -80 150 -134 61 -54 144 -128 185 -165 41 -37 152 -137 245
-221 94 -84 186 -167 205 -185 19 -17 91 -83 160 -145 69 -62 143 -129 165
-149 57 -53 131 -120 285 -260 74 -67 158 -144 185 -169 28 -26 84 -78 125
-116 41 -38 127 -116 190 -175 63 -59 142 -131 174 -161 32 -30 82 -76 110
-102 28 -27 71 -67 96 -90 61 -55 300 -279 535 -501 72 -68 144 -135 160 -150
28 -25 272 -257 440 -418 777 -743 1268 -1222 2054 -2009 577 -576 787 -790
1284 -1302 193 -198 578 -598 710 -737 39 -41 114 -120 166 -176 53 -55 128
-134 166 -175 39 -40 142 -150 230 -244 185 -196 269 -286 415 -444 58 -62
119 -127 135 -145 32 -33 465 -504 525 -570 19 -21 44 -49 55 -60 11 -12 44
-49 74 -81 30 -33 71 -78 91 -100 20 -22 85 -94 145 -160 59 -66 124 -138 145
-160 20 -22 81 -89 135 -150 54 -60 113 -126 131 -145 17 -19 74 -82 124 -140
51 -58 109 -123 129 -145 20 -22 74 -83 121 -135 46 -52 96 -108 111 -125 15
-16 66 -75 114 -130 48 -55 102 -116 119 -135 17 -19 60 -69 96 -110 36 -41
68 -77 71 -80 3 -3 113 -129 244 -280 131 -151 263 -304 294 -338 30 -35 62
-73 70 -85 8 -12 20 -26 26 -32 7 -5 36 -39 66 -75 30 -36 57 -67 60 -70 6 -5
179 -207 338 -395 51 -60 103 -121 114 -135 12 -14 69 -81 127 -150 58 -69
115 -136 127 -150 11 -14 59 -70 104 -125 46 -55 91 -109 101 -120 18 -22 48
-58 299 -360 193 -233 659 -802 809 -990 58 -71 113 -139 122 -150 16 -19 411
-514 463 -580 71 -90 238 -302 300 -380 191 -241 718 -922 995 -1285 155 -203
934 -1244 1003 -1340 25 -36 50 -70 55 -76 17 -20 247 -335 257 -352 6 -9 12
-19 15 -22 15 -14 175 -235 417 -575 78 -110 146 -204 151 -210 4 -5 19 -26
32 -45 13 -19 28 -39 32 -45 22 -28 112 -155 400 -565 21 -30 159 -228 305
-440 147 -212 270 -387 273 -390 4 -3 9 -12 13 -20 4 -8 41 -64 83 -125 42
-60 129 -186 192 -280 183 -271 197 -290 205 -293 4 -2 7 -7 7 -12 0 -8 93
-153 112 -175 5 -5 84 -122 174 -260 91 -137 172 -258 180 -268 7 -9 14 -19
14 -22 0 -8 64 -100 72 -103 4 -2 8 -8 8 -12 0 -5 64 -107 143 -227 79 -120
172 -263 207 -318 35 -55 68 -102 72 -105 4 -3 11 -14 15 -25 12 -28 105 -169
115 -173 4 -2 8 -8 8 -13 0 -7 120 -197 305 -484 17 -27 72 -113 120 -190 48
-77 98 -156 111 -175 44 -69 348 -557 407 -655 33 -55 63 -102 66 -105 4 -3
15 -22 26 -42 11 -21 23 -38 27 -38 5 0 8 -4 8 -10 0 -5 50 -92 112 -192 61
-101 228 -376 369 -613 142 -236 263 -435 269 -442 5 -7 10 -15 10 -18 0 -10
114 -200 122 -203 5 -2 8 -8 8 -14 0 -12 82 -152 92 -156 5 -2 8 -7 8 -12 0
-5 55 -102 121 -217 67 -114 129 -221 139 -238 9 -16 70 -122 135 -235 119
-207 138 -240 176 -307 12 -21 51 -90 87 -153 36 -63 79 -140 95 -170 17 -30
41 -72 54 -92 13 -21 23 -40 23 -43 0 -3 10 -22 23 -43 13 -20 40 -68 61 -105
20 -37 46 -84 58 -105 11 -20 34 -62 51 -92 17 -30 74 -134 127 -230 53 -96
112 -202 130 -235 18 -33 43 -78 55 -100 36 -66 101 -186 138 -254 19 -35 45
-70 58 -77 61 -32 382 -184 390 -184 5 0 9 -4 9 -9 0 -5 9 -13 21 -16 11 -4
68 -33 126 -66 59 -32 108 -59 110 -59 2 0 29 -16 59 -35 30 -19 56 -35 58
-35 18 0 371 -230 548 -356 64 -46 119 -84 122 -84 4 0 0 15 -7 32 -8 18 -14
35 -14 38 -1 3 -7 25 -14 50 -7 25 -13 48 -15 53 -1 4 -2 8 -4 10 -1 1 -3 9
-5 17 -4 17 -20 68 -106 348 -11 37 -27 87 -34 112 -7 25 -34 113 -60 195 -88
283 -96 310 -101 334 -3 14 -7 28 -10 33 -3 4 -15 43 -28 87 -22 74 -41 110
-203 371 -19 30 -39 64 -46 75 -15 25 -89 143 -147 235 -25 40 -59 95 -77 124
-18 28 -37 56 -43 63 -5 7 -10 15 -10 18 0 9 -314 500 -322 503 -4 2 -8 8 -8
12 0 10 -339 542 -350 550 -4 3 -9 10 -11 16 -4 12 -104 167 -320 497 -69 106
-156 239 -194 297 -38 58 -72 107 -77 108 -4 2 -8 8 -8 13 0 8 -611 935 -642
974 -4 6 -27 39 -51 75 -143 215 -292 436 -297 440 -3 3 -36 52 -74 110 -38
58 -73 107 -78 108 -4 2 -8 7 -8 12 0 8 -49 82 -300 448 -69 100 -129 190
-135 200 -5 9 -13 19 -16 22 -3 3 -35 48 -71 100 -231 338 -312 456 -317 460
-3 3 -41 57 -84 120 -43 63 -105 153 -138 200 -33 47 -83 119 -111 160 -29 41
-55 79 -60 85 -4 5 -34 47 -66 93 -154 222 -237 337 -244 340 -5 2 -8 8 -8 12
0 5 -33 55 -73 112 -41 57 -127 177 -191 268 -64 91 -124 174 -131 185 -8 11
-56 79 -107 150 -51 72 -98 136 -105 143 -7 7 -13 17 -13 21 0 4 -8 16 -17 27
-10 11 -34 42 -53 69 -103 149 -424 590 -432 593 -4 2 -8 7 -8 12 0 11 -300
424 -312 428 -4 2 -8 8 -8 12 0 5 -47 73 -105 152 -58 79 -138 187 -177 241
-39 54 -76 104 -82 110 -6 7 -27 35 -46 62 -83 120 -1269 1706 -1290 1725 -3
3 -51 66 -106 140 -56 74 -134 178 -174 230 -41 52 -116 151 -169 220 -52 69
-98 127 -101 130 -3 3 -17 21 -30 40 -13 19 -29 40 -35 46 -10 12 -96 123
-285 369 -55 72 -105 136 -112 144 -6 8 -67 85 -134 172 -104 133 -187 239
-305 389 -194 247 -473 600 -530 670 -15 19 -94 118 -175 219 -81 101 -153
191 -160 200 -7 9 -129 160 -271 336 -336 416 -878 1080 -1055 1290 -9 11 -76
92 -149 180 -73 88 -135 162 -138 165 -4 3 -62 73 -131 155 -123 149 -374 447
-416 495 -13 14 -116 135 -230 270 -114 135 -246 290 -294 345 -262 304 -618
715 -646 745 -17 19 -84 96 -148 170 -65 74 -132 151 -150 170 -18 19 -100
112 -182 205 -82 94 -163 186 -180 205 -17 19 -77 87 -134 150 -56 63 -117
131 -134 150 -18 19 -75 82 -126 140 -52 58 -97 107 -100 110 -3 3 -66 72
-140 155 -179 199 -458 505 -484 531 -12 12 -30 32 -41 45 -12 13 -56 62 -100
109 -43 47 -117 127 -164 178 -47 51 -108 116 -136 146 -27 29 -75 79 -105
112 -30 33 -113 122 -185 198 -71 76 -143 152 -159 169 -46 50 -397 418 -621
653 -636 665 -1638 1671 -2218 2228 -446 429 -587 563 -697 666 -25 23 -108
101 -184 174 -77 72 -144 136 -150 141 -6 6 -99 91 -206 191 -163 151 -556
509 -705 643 -22 20 -85 77 -140 126 -55 50 -115 104 -135 121 -19 17 -82 73
-140 124 -58 51 -121 107 -140 124 -242 218 -1010 875 -1395 1194 -494 409
-786 645 -1215 982 -258 202 -347 271 -580 450 -133 102 -653 490 -785 586
-318 232 -609 440 -845 604 -74 52 -167 117 -207 144 -180 127 -343 236 -352
236 -5 0 -11 4 -13 8 -4 10 -64 52 -74 52 -4 0 -4 -4 2 -8z"/>
<path d="M12203 16788 c-28 -29 -131 -141 -228 -248 -98 -107 -219 -240 -269
-295 -50 -55 -114 -124 -142 -155 -58 -62 -149 -163 -209 -229 -44 -49 -104
-115 -240 -266 -111 -122 -155 -171 -231 -256 -32 -36 -95 -105 -140 -155 -45
-49 -99 -109 -120 -134 -21 -25 -42 -47 -45 -50 -5 -5 -211 -234 -479 -535
-25 -27 -47 -52 -50 -55 -3 -3 -35 -39 -70 -80 -36 -41 -70 -79 -76 -85 -5 -5
-46 -50 -90 -100 -43 -49 -81 -92 -84 -95 -3 -3 -36 -41 -74 -85 -39 -44 -84
-96 -102 -115 -68 -75 -128 -143 -314 -355 -105 -121 -204 -233 -218 -250
-112 -126 -260 -294 -277 -314 -37 -44 -377 -435 -431 -496 -29 -33 -63 -73
-76 -90 -12 -16 -30 -37 -38 -45 -50 -50 -871 -1015 -1293 -1520 -159 -190
-306 -365 -327 -390 -20 -25 -94 -115 -164 -200 -70 -85 -135 -164 -144 -175
-9 -11 -30 -36 -45 -55 -16 -19 -43 -53 -62 -75 -110 -131 -793 -984 -900
-1125 -28 -36 -52 -67 -55 -70 -9 -8 -301 -387 -351 -455 -24 -33 -46 -62 -49
-65 -3 -3 -17 -21 -30 -40 -14 -19 -35 -46 -47 -60 -13 -14 -23 -28 -23 -32 0
-3 -6 -13 -13 -20 -14 -14 -157 -205 -293 -393 -195 -267 -436 -612 -579 -830
-83 -126 -265 -414 -265 -419 0 -2 -24 -43 -53 -92 -104 -173 -279 -511 -282
-544 0 -3 -4 -11 -8 -17 -4 -7 -21 -49 -37 -93 -29 -79 -29 -80 -7 -76 12 3
22 5 22 6 0 2 14 5 53 14 12 3 26 7 30 10 5 3 19 7 33 10 36 8 62 15 464 131
476 137 715 205 741 210 12 3 40 11 63 19 22 9 41 13 41 11 0 -3 12 0 28 6 15
6 34 12 42 15 29 7 168 46 250 69 30 9 64 18 74 20 10 2 60 16 110 31 50 14
98 27 106 29 13 2 42 10 115 31 51 15 161 44 166 44 8 0 189 -248 189 -260 0
-4 4 -10 8 -12 8 -3 60 -73 272 -368 47 -64 93 -128 103 -141 9 -13 58 -80
107 -149 49 -69 96 -134 104 -145 20 -28 247 -340 287 -395 18 -25 49 -67 69
-95 20 -27 90 -124 156 -215 65 -91 122 -169 127 -175 4 -5 110 -152 235 -325
289 -399 579 -799 598 -825 8 -11 67 -92 130 -180 64 -88 159 -220 212 -293
53 -74 106 -146 117 -162 11 -16 54 -75 95 -131 41 -57 78 -107 81 -112 4 -5
46 5 95 23 207 74 443 155 644 221 118 39 233 78 255 86 22 8 50 17 62 19 12
2 35 9 50 15 16 6 35 12 43 14 8 2 44 13 80 25 36 12 70 23 75 24 11 2 147 44
270 83 44 14 90 27 102 29 12 2 35 9 50 15 16 6 38 13 51 15 13 3 42 11 65 19
51 17 303 89 477 136 41 11 94 27 117 34 24 8 57 17 74 20 18 3 40 10 50 16
11 5 19 8 19 5 0 -2 21 3 48 11 46 14 64 19 100 27 9 2 37 10 62 17 25 7 50
13 55 15 6 1 35 9 66 18 31 9 65 18 75 20 11 2 64 16 119 31 100 27 116 31
156 40 11 2 29 7 39 10 10 3 28 8 39 10 12 3 31 7 44 11 12 3 33 7 47 10 14 3
34 8 45 11 11 4 25 8 30 9 35 9 63 16 85 20 14 3 34 8 45 11 21 7 29 9 60 16
16 4 258 63 338 83 51 12 64 15 82 19 11 3 29 7 40 9 11 2 61 14 110 26 50 12
101 24 114 26 12 3 53 12 90 20 36 9 73 17 81 19 45 11 208 47 225 51 11 2 31
6 45 9 14 4 34 8 45 10 20 5 42 10 88 20 12 3 36 8 52 10 17 3 38 8 47 11 16
5 35 9 88 19 53 10 72 14 88 19 9 3 31 8 47 11 17 2 41 7 55 10 14 4 34 8 45
9 39 7 91 17 135 27 25 6 56 13 70 15 14 3 32 7 40 9 8 2 29 7 45 10 17 2 41
7 55 10 14 3 36 7 50 10 14 3 36 7 50 10 14 3 41 8 60 11 19 3 42 7 50 9 8 2
29 7 45 10 17 2 41 7 55 10 14 4 34 8 45 9 23 4 129 24 165 31 14 3 40 8 59
11 18 3 43 8 55 10 11 3 30 7 41 8 11 2 35 7 53 10 17 3 44 8 60 11 15 3 38 7
52 10 14 3 39 7 55 10 17 2 80 13 140 24 61 11 128 23 150 26 22 3 54 9 70 12
32 7 35 7 104 17 24 4 47 8 50 10 3 2 31 7 61 11 30 4 57 8 60 10 3 2 29 6 59
10 30 4 63 9 75 11 40 8 73 14 112 19 21 3 48 8 59 9 11 2 43 7 70 11 28 4 57
8 65 10 8 1 35 6 60 10 25 3 59 9 75 12 57 9 70 11 120 18 28 3 57 8 65 10 8
2 35 7 60 10 89 11 116 15 140 20 14 3 45 7 70 10 68 8 102 13 140 20 19 3 51
8 70 10 19 3 51 7 70 10 19 3 55 7 80 10 25 3 61 8 80 11 19 3 46 7 60 8 14 2
50 7 80 10 30 4 66 9 80 11 14 2 49 7 79 10 30 4 61 8 70 10 9 1 47 6 84 10
37 3 76 8 85 10 15 2 96 13 162 20 14 2 50 6 80 10 30 4 71 8 90 10 19 2 60 6
90 10 79 10 98 12 165 19 114 13 140 15 195 22 30 3 71 7 90 9 19 2 62 6 95
10 33 3 80 8 105 10 25 2 68 6 95 9 28 3 77 8 110 11 33 3 80 7 105 10 25 3
72 7 105 10 33 3 80 7 105 10 25 3 77 7 115 10 39 3 95 7 125 10 130 11 208
18 385 31 50 3 106 8 125 9 19 2 80 6 135 9 55 4 125 9 155 11 30 3 98 7 150
10 52 3 136 7 185 11 233 15 682 35 1060 49 767 28 2213 28 2970 0 144 -5 398
-16 475 -20 41 -2 131 -7 200 -10 223 -12 429 -24 510 -30 30 -2 96 -7 145
-10 50 -3 117 -8 150 -11 33 -2 89 -7 125 -9 36 -2 92 -6 125 -9 33 -3 88 -8
122 -11 35 -2 91 -7 125 -10 35 -3 90 -8 123 -11 33 -2 83 -7 110 -10 28 -2
75 -7 105 -9 30 -3 75 -7 100 -10 25 -2 70 -7 100 -10 30 -3 75 -7 100 -10 25
-3 72 -7 105 -10 33 -3 71 -8 85 -10 14 -2 58 -7 97 -10 40 -3 80 -8 90 -9 10
-2 47 -7 83 -11 36 -4 79 -9 95 -11 17 -2 54 -6 83 -9 29 -4 61 -8 70 -10 9
-1 46 -6 82 -9 36 -4 76 -9 90 -11 14 -3 45 -7 70 -10 25 -3 62 -7 83 -10 20
-3 54 -7 75 -10 20 -2 57 -7 82 -11 25 -3 56 -7 70 -9 14 -1 45 -6 70 -9 25
-4 56 -9 70 -11 69 -10 178 -26 205 -29 17 -2 49 -7 72 -10 55 -9 89 -14 137
-21 38 -5 55 -8 129 -21 17 -3 48 -7 67 -9 19 -3 46 -7 60 -10 13 -2 42 -8 65
-11 22 -4 49 -8 60 -10 27 -4 72 -11 120 -19 56 -9 87 -14 111 -19 26 -5 88
-16 129 -21 17 -3 41 -7 55 -10 14 -3 39 -8 55 -10 45 -8 136 -24 174 -30 19
-3 37 -7 40 -9 3 -2 26 -7 51 -10 44 -6 70 -11 120 -21 14 -3 41 -8 60 -11 19
-3 51 -9 70 -14 19 -5 51 -11 70 -14 36 -6 47 -8 135 -26 28 -6 61 -12 75 -15
14 -3 38 -7 53 -11 16 -3 38 -8 50 -10 12 -2 45 -8 72 -14 28 -6 63 -13 79
-16 16 -3 32 -6 35 -8 3 -2 22 -7 41 -10 19 -3 44 -8 55 -10 105 -23 315 -69
335 -72 14 -3 33 -7 42 -10 9 -3 27 -7 40 -9 13 -3 37 -8 53 -12 17 -4 32 -7
35 -8 3 -1 19 -4 35 -8 17 -4 40 -10 53 -12 12 -3 30 -7 40 -9 9 -3 76 -18
149 -35 72 -17 138 -33 145 -36 7 -2 24 -7 38 -9 42 -8 71 -15 90 -21 10 -3
28 -8 39 -10 12 -3 30 -7 41 -10 11 -3 29 -7 41 -10 11 -2 29 -7 39 -10 10 -3
28 -8 39 -10 12 -3 30 -7 41 -10 11 -3 29 -7 41 -10 11 -2 29 -7 39 -10 10 -3
27 -8 37 -10 10 -2 54 -13 98 -25 44 -12 87 -23 95 -26 8 -2 51 -13 95 -25 44
-11 89 -23 99 -25 10 -2 33 -8 50 -14 25 -8 107 -30 236 -65 8 -2 87 -24 175
-50 88 -25 168 -48 178 -50 15 -3 83 -24 238 -71 25 -8 54 -17 65 -19 10 -2
39 -11 64 -19 90 -29 215 -68 230 -71 8 -2 16 -4 18 -5 1 -2 5 -3 10 -4 24 -5
792 -259 912 -301 41 -15 80 -28 85 -30 10 -2 26 -8 85 -30 46 -17 334 -119
340 -121 3 0 12 -4 20 -7 30 -13 315 -119 325 -121 6 -1 27 -10 49 -19 21 -9
42 -17 47 -17 5 0 17 -4 27 -9 23 -13 124 -53 137 -55 5 -1 21 -8 35 -16 14
-7 25 -12 25 -11 0 3 6 0 179 -68 71 -28 131 -50 132 -48 3 3 -95 51 -336 165
-168 80 -224 106 -230 107 -3 0 -33 15 -68 33 -34 17 -63 31 -65 31 -1 -1 -36
15 -77 34 -143 66 -211 97 -215 97 -2 0 -32 13 -67 29 -35 16 -85 39 -113 51
-73 32 -102 45 -177 79 -38 16 -68 27 -68 24 0 -3 -6 -1 -12 5 -7 5 -74 35
-148 66 -74 32 -146 62 -160 68 -31 13 -34 15 -212 88 -80 33 -211 85 -290
115 -78 31 -152 60 -163 65 -29 13 -169 67 -420 160 -485 181 -515 192 -525
188 -3 -1 -15 4 -28 11 -21 11 -471 169 -502 176 -8 2 -16 4 -17 5 -2 2 -6 3
-10 5 -5 1 -15 4 -23 8 -14 5 -88 29 -100 32 -3 1 -12 4 -20 7 -121 41 -180
60 -191 62 -8 1 -34 9 -59 18 -25 10 -106 36 -180 59 -74 22 -163 50 -198 61
-34 11 -68 21 -75 22 -6 1 -50 14 -97 29 -70 21 -158 48 -215 64 -5 1 -41 12
-80 23 -38 12 -81 23 -94 26 -13 3 -32 9 -43 15 -10 5 -18 7 -18 4 0 -3 -8 -1
-18 4 -11 6 -30 12 -43 15 -13 2 -81 20 -150 40 -69 20 -135 39 -145 41 -10 2
-59 15 -109 29 -49 13 -144 38 -209 56 -66 17 -128 34 -138 36 -10 2 -27 6
-38 9 -11 3 -29 7 -40 10 -11 3 -29 7 -40 10 -11 3 -29 7 -41 10 -11 2 -29 7
-39 10 -10 3 -27 8 -37 10 -10 2 -46 11 -80 20 -35 9 -71 18 -80 20 -10 1 -38
8 -63 15 -25 7 -52 14 -60 15 -21 5 -112 26 -130 31 -8 2 -46 11 -85 20 -38 8
-78 17 -87 20 -35 8 -55 13 -148 34 -52 12 -104 24 -115 26 -35 7 -59 12 -105
23 -25 5 -57 12 -72 15 -16 3 -40 9 -55 12 -16 3 -48 10 -73 16 -25 6 -54 12
-65 13 -11 2 -63 13 -115 25 -52 11 -108 23 -125 26 -16 2 -37 7 -45 9 -8 2
-31 7 -50 10 -19 3 -42 8 -50 10 -8 2 -28 7 -45 9 -16 3 -41 8 -55 11 -35 7
-81 15 -110 20 -14 2 -36 7 -50 10 -14 3 -40 8 -59 11 -18 3 -43 8 -55 10 -11
2 -46 8 -76 14 -30 6 -66 12 -80 15 -14 3 -40 8 -59 11 -18 3 -43 8 -55 10
-11 2 -36 7 -55 10 -18 3 -43 7 -54 10 -12 2 -37 6 -57 9 -20 3 -47 8 -60 10
-14 3 -41 8 -60 11 -58 9 -84 13 -110 19 -14 3 -41 7 -60 10 -19 2 -46 7 -59
9 -12 3 -42 8 -65 10 -22 3 -52 8 -66 11 -14 3 -41 7 -60 10 -19 3 -44 7 -56
9 -12 2 -45 7 -74 11 -29 4 -62 9 -74 11 -11 2 -36 6 -56 8 -41 6 -116 17
-145 22 -11 2 -38 5 -60 9 -22 3 -58 8 -80 11 -58 9 -74 11 -140 19 -33 4 -69
9 -80 11 -11 2 -40 6 -65 9 -25 3 -61 8 -80 11 -19 3 -55 7 -80 10 -25 2 -56
7 -70 9 -14 2 -50 7 -80 11 -30 3 -66 8 -80 9 -14 2 -50 6 -80 9 -30 3 -73 9
-94 12 -22 4 -55 8 -75 9 -20 2 -58 6 -86 9 -27 3 -70 8 -95 11 -25 2 -65 7
-90 10 -25 3 -67 7 -95 10 -27 3 -70 7 -95 10 -25 3 -70 7 -100 10 -30 3 -75
7 -100 10 -25 2 -76 7 -115 10 -38 4 -88 8 -110 11 -22 2 -67 6 -100 9 -33 3
-85 7 -115 10 -70 6 -178 15 -255 20 -33 3 -90 7 -128 10 -134 10 -204 15
-287 20 -47 3 -123 8 -170 11 -47 3 -114 7 -150 9 -36 2 -119 7 -185 10 -66 4
-151 8 -190 10 -38 2 -146 6 -240 10 -834 36 -2191 41 -3035 10 -159 -6 -435
-17 -495 -20 -33 -2 -121 -6 -195 -10 -220 -10 -396 -21 -529 -30 -29 -2 -101
-6 -160 -10 -58 -4 -124 -8 -146 -10 -22 -2 -80 -7 -130 -10 -49 -3 -117 -8
-150 -11 -108 -8 -159 -12 -240 -19 -44 -3 -100 -8 -125 -10 -25 -3 -74 -7
-110 -10 -97 -8 -169 -15 -225 -21 -27 -3 -75 -7 -105 -9 -30 -3 -75 -7 -100
-10 -25 -3 -71 -8 -102 -10 -85 -8 -138 -14 -188 -20 -25 -3 -65 -7 -90 -10
-52 -4 -134 -13 -205 -21 -68 -9 -91 -11 -160 -18 -33 -4 -73 -8 -90 -11 -16
-2 -57 -6 -90 -10 -33 -3 -72 -8 -86 -11 -36 -5 -99 -13 -157 -19 -26 -3 -58
-7 -72 -10 -13 -2 -49 -7 -80 -10 -31 -3 -66 -7 -79 -10 -14 -2 -47 -7 -75
-10 -28 -3 -67 -7 -86 -10 -19 -2 -57 -7 -84 -11 -27 -3 -58 -7 -69 -10 -10
-2 -45 -6 -76 -10 -31 -3 -65 -8 -76 -10 -11 -2 -40 -7 -65 -10 -25 -3 -56 -8
-70 -10 -14 -2 -45 -6 -70 -9 -25 -3 -57 -8 -72 -10 -60 -10 -133 -22 -198
-30 -14 -2 -38 -6 -55 -9 -16 -3 -50 -8 -75 -11 -65 -10 -101 -15 -130 -20
-14 -3 -43 -7 -65 -10 -22 -2 -51 -7 -65 -10 -27 -5 -60 -10 -125 -20 -23 -3
-52 -7 -65 -10 -13 -3 -40 -7 -60 -10 -20 -3 -47 -7 -60 -10 -13 -3 -40 -7
-60 -10 -20 -3 -47 -7 -60 -10 -13 -3 -40 -7 -60 -10 -20 -3 -47 -7 -60 -10
-13 -3 -40 -7 -60 -10 -20 -3 -47 -8 -60 -10 -29 -6 -66 -13 -112 -20 -46 -8
-79 -14 -108 -20 -13 -2 -40 -7 -60 -10 -20 -3 -47 -7 -60 -10 -14 -3 -50 -9
-80 -15 -30 -6 -65 -12 -76 -14 -12 -2 -39 -7 -60 -10 -22 -4 -46 -8 -54 -11
-8 -2 -31 -6 -50 -9 -19 -3 -46 -8 -60 -11 -14 -3 -50 -9 -80 -15 -30 -6 -66
-12 -80 -15 -14 -3 -36 -7 -50 -10 -14 -3 -36 -7 -50 -10 -14 -3 -40 -7 -59
-10 -18 -2 -41 -7 -50 -9 -9 -3 -29 -8 -46 -10 -16 -3 -55 -10 -85 -16 -30 -6
-64 -13 -75 -15 -52 -10 -72 -14 -95 -20 -14 -3 -37 -7 -52 -10 -15 -2 -35 -6
-45 -9 -10 -3 -34 -8 -53 -11 -19 -3 -69 -13 -110 -22 -41 -8 -84 -17 -95 -19
-11 -2 -31 -6 -45 -9 -14 -3 -40 -8 -59 -11 -19 -2 -37 -6 -41 -9 -4 -2 -20
-7 -36 -9 -36 -7 -72 -14 -104 -21 -14 -3 -36 -8 -50 -11 -14 -3 -36 -7 -50
-10 -14 -3 -32 -7 -40 -9 -8 -2 -31 -7 -50 -10 -19 -3 -51 -10 -70 -15 -19 -5
-50 -12 -69 -15 -19 -3 -37 -7 -40 -9 -3 -2 -24 -7 -46 -10 -22 -4 -48 -9 -57
-12 -18 -5 -46 -11 -93 -19 -16 -3 -43 -10 -60 -14 -25 -8 -94 -21 -110 -22
-2 0 -19 -5 -37 -10 -18 -5 -46 -12 -63 -15 -16 -2 -38 -7 -47 -10 -9 -3 -27
-7 -40 -9 -20 -4 -73 -16 -88 -20 -38 -11 -311 -72 -360 -81 -14 -3 -72 -16
-130 -30 -58 -14 -114 -27 -125 -29 -38 -7 -80 -16 -120 -27 -42 -11 -61 -15
-110 -24 -16 -3 -64 -14 -105 -24 -41 -10 -91 -22 -110 -25 -19 -3 -64 -13
-100 -21 -36 -9 -74 -17 -85 -20 -11 -2 -30 -6 -42 -9 -44 -10 -69 -15 -168
-35 -55 -11 -111 -22 -125 -25 -14 -3 -41 -8 -60 -11 -19 -3 -43 -7 -53 -10
-10 -3 -30 -7 -45 -9 -15 -2 -43 -7 -62 -10 -19 -4 -46 -8 -60 -10 -14 -2 -52
-6 -85 -10 -119 -14 -215 -6 -362 29 -49 12 -163 51 -210 71 -29 13 -53 22
-53 20 0 -6 -369 183 -380 195 -5 6 -93 59 -115 70 -5 3 -49 31 -97 64 -76 51
-99 76 -69 76 5 0 26 8 47 17 22 9 41 17 44 17 3 1 24 8 45 17 22 9 60 25 85
34 25 10 54 21 65 26 19 9 49 19 255 95 52 19 102 37 110 41 8 3 20 7 25 9 6
2 62 22 125 44 63 23 194 69 290 101 96 33 182 63 190 66 8 3 17 7 20 7 8 2
483 157 500 164 8 3 17 6 20 7 20 6 96 29 103 31 4 1 9 3 12 4 3 1 8 3 13 4 4
1 23 7 42 13 127 40 207 65 220 68 8 2 60 18 115 35 55 17 110 33 123 36 13 2
42 11 65 19 53 17 120 35 127 33 3 -1 14 4 26 10 11 6 32 13 45 15 13 3 51 13
84 23 33 10 65 19 70 20 6 1 44 12 85 24 41 11 82 22 90 25 8 2 49 13 90 24
41 11 145 38 230 61 85 23 162 43 170 45 8 1 59 15 114 30 54 15 110 29 124
31 14 3 29 7 32 9 4 2 22 7 41 10 45 9 63 13 67 15 3 3 3 3 77 20 33 7 65 15
70 16 6 2 20 5 33 8 12 3 31 8 42 11 34 8 162 39 213 51 9 2 27 6 40 10 12 3
33 7 47 10 14 2 36 7 50 11 34 9 31 8 75 18 22 5 42 9 45 10 4 1 72 17 90 20
3 1 19 4 35 8 17 4 39 9 50 11 11 3 54 12 95 21 41 9 84 18 95 21 11 2 30 6
43 9 12 3 32 7 45 10 12 2 36 8 52 12 17 4 33 6 37 5 4 -1 18 2 31 7 13 5 39
12 58 15 19 3 45 8 59 11 14 3 36 7 50 10 14 3 36 7 50 10 14 3 36 7 50 10 14
3 36 7 50 10 32 7 68 14 105 20 17 3 37 8 45 10 8 2 29 7 45 10 17 2 41 7 55
10 14 3 36 8 50 10 14 2 46 8 73 14 26 6 62 13 80 16 17 2 43 7 57 10 14 3 40
8 59 11 18 3 43 8 55 10 11 2 35 6 51 9 17 3 53 10 80 15 54 10 109 20 140 25
11 1 36 6 55 9 19 4 62 11 95 17 33 6 71 12 85 15 14 3 36 7 50 9 14 2 40 6
58 9 17 3 47 8 65 11 17 3 46 8 62 11 17 3 41 7 55 9 45 7 104 16 160 25 30 6
73 12 95 15 22 3 51 7 65 10 14 3 43 7 65 10 22 3 51 7 65 10 39 7 102 16 130
20 14 1 43 5 65 9 22 4 54 9 70 11 17 2 44 6 60 9 17 2 55 8 85 11 30 4 64 8
75 10 11 2 40 6 65 9 25 4 61 8 80 11 70 10 126 17 150 20 50 5 134 17 154 21
11 2 45 6 76 9 31 3 65 7 77 9 12 3 48 7 80 11 112 11 150 16 169 19 10 2 53
7 94 11 41 4 82 8 90 10 8 2 49 6 90 10 77 8 81 8 190 20 36 4 79 8 95 10 35
3 166 16 210 20 17 2 61 7 99 10 38 3 85 8 105 10 39 4 156 14 236 21 70 5
181 14 235 19 44 4 120 10 265 20 39 3 99 7 135 10 36 3 103 7 150 10 47 3
119 7 161 10 89 6 191 12 349 20 63 3 151 8 195 10 78 4 311 14 470 20 717 28
2232 28 2885 0 41 -2 154 -6 250 -10 96 -4 198 -9 225 -10 28 -1 113 -6 190
-9 77 -4 165 -9 195 -11 30 -2 102 -7 160 -10 58 -3 130 -8 160 -10 30 -2 96
-6 145 -10 50 -3 115 -8 145 -10 30 -2 89 -6 130 -9 71 -6 126 -10 250 -21 30
-3 84 -7 120 -10 101 -8 181 -15 230 -20 25 -3 74 -8 110 -11 36 -3 81 -7 100
-9 19 -2 70 -6 113 -10 44 -4 88 -8 100 -11 12 -2 51 -6 87 -9 36 -3 79 -8 95
-9 17 -2 59 -7 95 -11 36 -4 76 -8 90 -10 93 -10 139 -16 170 -20 19 -2 62 -7
95 -10 33 -3 69 -7 80 -9 11 -2 49 -7 85 -11 36 -3 76 -8 90 -10 14 -2 43 -6
65 -9 22 -3 58 -8 80 -11 59 -7 126 -16 165 -20 19 -2 49 -6 65 -9 28 -5 66
-10 160 -21 22 -3 51 -7 65 -10 14 -2 45 -7 70 -10 25 -4 56 -8 70 -10 14 -2
45 -7 70 -10 25 -3 56 -7 70 -10 31 -5 93 -15 140 -21 19 -2 46 -6 60 -9 14
-2 43 -7 65 -10 23 -3 52 -8 65 -10 14 -3 45 -8 70 -11 25 -3 52 -7 60 -9 8
-2 38 -7 65 -11 28 -3 59 -8 70 -10 11 -3 36 -7 55 -10 49 -7 81 -13 106 -18
12 -2 39 -7 60 -10 22 -4 64 -11 94 -16 78 -13 110 -19 155 -25 22 -4 47 -8
56 -11 9 -2 32 -7 50 -9 19 -3 45 -7 59 -10 14 -3 39 -7 55 -10 17 -3 41 -7
55 -10 14 -3 39 -7 55 -10 17 -3 41 -7 55 -10 14 -3 39 -7 55 -10 17 -3 44 -8
60 -12 17 -3 39 -7 50 -9 22 -3 48 -8 150 -29 93 -18 123 -24 165 -31 19 -3
43 -7 52 -10 16 -5 36 -9 88 -19 14 -3 36 -7 50 -10 14 -3 36 -7 50 -10 14 -3
36 -7 50 -10 14 -3 39 -8 55 -11 17 -3 35 -7 40 -8 38 -9 74 -16 95 -20 14 -3
36 -8 50 -11 14 -3 39 -8 55 -11 17 -2 46 -9 65 -14 19 -5 49 -12 67 -15 17
-3 93 -19 168 -36 76 -17 146 -32 157 -34 10 -2 89 -20 176 -40 86 -21 164
-38 172 -40 8 -2 33 -8 55 -13 22 -6 51 -13 65 -16 14 -3 35 -7 48 -10 66 -17
155 -37 179 -42 12 -2 34 -9 48 -14 14 -5 25 -7 25 -5 0 2 11 0 25 -5 14 -5
36 -12 48 -14 43 -9 63 -14 107 -26 25 -7 55 -14 67 -16 12 -2 34 -9 48 -14
14 -5 25 -7 25 -5 0 2 11 0 25 -5 14 -5 36 -12 48 -14 41 -9 62 -14 142 -36
65 -17 166 -44 325 -85 8 -3 31 -9 50 -14 93 -26 151 -41 220 -60 41 -11 125
-34 185 -51 61 -17 119 -33 130 -35 11 -3 31 -9 45 -14 14 -5 61 -19 105 -31
44 -12 117 -33 162 -47 46 -14 89 -26 95 -27 7 -1 51 -14 98 -29 128 -39 224
-67 235 -68 6 -1 17 -5 26 -10 9 -4 27 -10 40 -13 26 -6 429 -132 629 -197 69
-23 132 -43 140 -44 8 -2 16 -4 18 -5 1 -2 5 -3 10 -5 4 -1 14 -4 22 -8 26
-10 173 -59 189 -62 9 -2 129 -43 266 -90 138 -48 275 -95 305 -105 128 -44
471 -166 505 -181 11 -4 40 -15 65 -23 25 -8 70 -25 100 -36 30 -12 60 -23 65
-24 6 -2 24 -9 40 -15 17 -7 37 -14 45 -16 8 -2 48 -17 89 -34 41 -17 77 -31
81 -31 4 0 24 -7 44 -15 20 -8 38 -15 41 -15 3 0 19 -7 35 -15 16 -8 31 -15
32 -15 6 2 643 -247 708 -276 19 -9 31 -11 25 -6 -5 6 -59 32 -120 57 -147 63
-159 68 -165 69 -3 1 -9 4 -15 8 -5 3 -113 49 -240 102 -126 53 -248 104 -270
114 -21 9 -42 17 -45 17 -3 0 -21 8 -40 17 -19 9 -127 53 -240 98 -113 45
-218 88 -235 95 -62 27 -270 105 -275 103 -3 -1 -18 5 -35 15 -31 17 -157 66
-470 182 -99 37 -187 69 -195 72 -8 4 -17 7 -20 8 -3 1 -12 5 -20 8 -8 3 -42
16 -75 27 -33 12 -69 25 -80 30 -11 5 -40 16 -65 24 -25 8 -72 25 -105 37 -33
12 -103 37 -155 56 -52 19 -113 40 -135 47 -22 6 -44 14 -50 17 -5 4 -26 11
-45 17 -19 6 -69 22 -110 37 -41 15 -82 29 -90 31 -17 4 -247 82 -270 91 -8 3
-19 7 -25 9 -5 1 -134 44 -285 94 -151 50 -284 92 -295 94 -11 2 -31 9 -45 15
-19 8 -149 48 -180 56 -3 1 -59 18 -125 39 -140 44 -159 49 -163 47 -1 -1 -18
6 -38 14 -20 8 -46 17 -58 19 -11 2 -57 15 -101 29 -44 13 -107 32 -140 42
-33 9 -71 20 -85 25 -45 14 -134 40 -155 44 -11 2 -32 9 -48 15 -15 6 -38 13
-50 15 -12 3 -53 14 -92 26 -38 11 -83 23 -99 26 -16 2 -33 7 -37 10 -4 2 -43
14 -86 25 -107 28 -145 39 -163 44 -32 9 -136 37 -145 39 -5 2 -30 8 -55 15
-25 7 -53 15 -62 17 -39 9 -57 13 -153 39 -55 15 -108 29 -117 31 -10 2 -27 6
-38 9 -11 3 -29 7 -40 10 -11 3 -29 7 -40 10 -11 3 -29 7 -41 10 -11 2 -29 7
-39 10 -10 3 -28 8 -39 10 -47 11 -58 13 -101 25 -25 7 -53 14 -63 16 -10 2
-27 6 -37 9 -10 3 -29 8 -42 10 -13 3 -52 12 -87 21 -36 9 -72 18 -80 20 -9 2
-47 11 -86 20 -38 8 -78 17 -87 20 -10 2 -26 6 -36 8 -9 2 -35 9 -57 15 -22 6
-58 13 -79 17 -22 3 -50 10 -63 15 -13 5 -23 7 -23 4 0 -2 -15 1 -32 6 -36 10
-263 61 -338 75 -14 3 -32 7 -40 9 -8 2 -28 7 -45 10 -16 2 -41 7 -55 11 -24
6 -95 21 -135 28 -11 3 -40 9 -65 15 -25 5 -58 12 -75 15 -16 3 -41 8 -55 11
-14 3 -36 8 -50 10 -14 2 -36 7 -50 10 -14 3 -36 8 -50 10 -14 2 -36 7 -50 9
-63 14 -77 17 -110 22 -19 3 -42 7 -50 9 -8 2 -28 7 -45 10 -16 2 -41 7 -55
10 -14 3 -38 7 -55 10 -16 3 -41 8 -55 10 -14 3 -34 7 -45 9 -11 2 -40 7 -65
12 -25 5 -49 9 -55 9 -5 1 -23 4 -40 8 -16 4 -46 9 -65 12 -19 3 -46 8 -60 10
-49 10 -75 15 -110 20 -20 3 -47 7 -60 10 -36 7 -129 23 -170 29 -19 3 -46 8
-60 11 -23 4 -82 14 -125 20 -32 4 -99 15 -125 20 -13 3 -42 7 -65 10 -61 9
-97 15 -125 20 -14 3 -45 8 -70 11 -25 3 -54 7 -65 9 -11 2 -42 6 -70 10 -27
4 -59 9 -70 11 -11 2 -40 7 -65 10 -25 3 -56 7 -70 9 -14 3 -45 7 -70 10 -25
3 -60 8 -77 10 -18 3 -50 7 -70 10 -21 3 -51 7 -68 10 -16 3 -52 7 -80 10 -27
3 -61 8 -75 10 -47 7 -315 41 -400 50 -14 2 -50 6 -80 10 -30 4 -76 8 -102 11
-26 2 -59 6 -75 8 -27 5 -94 12 -183 21 -25 2 -70 6 -100 10 -86 9 -140 14
-205 20 -33 3 -76 8 -95 10 -19 2 -68 7 -109 10 -40 3 -91 8 -113 10 -22 3
-72 7 -112 10 -39 3 -91 8 -116 10 -25 2 -81 7 -125 10 -44 3 -105 8 -135 10
-30 3 -93 8 -140 11 -47 3 -105 7 -130 9 -45 3 -246 16 -330 20 -25 1 -106 6
-180 10 -147 8 -161 9 -425 20 -275 12 -305 13 -680 21 -696 15 -1559 7 -2215
-21 -242 -10 -267 -12 -415 -20 -71 -4 -155 -9 -185 -10 -49 -3 -141 -8 -305
-19 -27 -2 -93 -7 -145 -11 -52 -4 -115 -8 -140 -10 -25 -2 -81 -6 -125 -10
-138 -11 -168 -14 -245 -20 -41 -4 -91 -8 -110 -10 -19 -2 -66 -7 -105 -10
-38 -3 -83 -8 -100 -9 -38 -5 -159 -17 -205 -21 -19 -2 -57 -6 -85 -9 -27 -3
-73 -8 -100 -11 -153 -16 -226 -24 -265 -30 -19 -3 -62 -7 -95 -10 -34 -3 -71
-7 -84 -10 -13 -2 -49 -7 -80 -10 -31 -4 -69 -9 -86 -12 -16 -2 -46 -6 -65 -8
-19 -2 -48 -6 -65 -9 -16 -2 -52 -7 -80 -11 -27 -3 -61 -8 -75 -10 -14 -2 -47
-6 -75 -10 -88 -12 -105 -14 -148 -21 -23 -3 -53 -7 -67 -9 -24 -2 -83 -11
-145 -22 -16 -3 -46 -7 -65 -9 -19 -2 -46 -6 -60 -8 -14 -3 -43 -8 -65 -11
-23 -3 -52 -8 -65 -10 -14 -3 -43 -8 -65 -10 -22 -3 -51 -7 -65 -10 -14 -3
-40 -7 -57 -10 -57 -9 -96 -15 -153 -25 -30 -5 -71 -12 -90 -15 -19 -3 -42 -8
-50 -10 -8 -3 -35 -7 -59 -10 -24 -3 -63 -10 -85 -15 -23 -5 -59 -11 -81 -14
-23 -4 -52 -9 -65 -11 -14 -3 -36 -7 -50 -10 -14 -3 -36 -7 -50 -10 -13 -2
-42 -7 -65 -10 -22 -4 -56 -10 -75 -15 -19 -5 -51 -11 -70 -15 -66 -11 -85
-14 -110 -20 -14 -3 -59 -12 -100 -20 -41 -8 -86 -17 -100 -20 -14 -3 -36 -7
-50 -10 -14 -3 -36 -7 -50 -10 -14 -3 -36 -8 -50 -10 -14 -2 -35 -7 -47 -10
-22 -5 -35 -8 -93 -20 -14 -3 -36 -8 -50 -11 -14 -3 -36 -7 -50 -10 -14 -2
-36 -7 -50 -10 -14 -3 -34 -8 -45 -10 -11 -2 -110 -24 -220 -49 -110 -25 -208
-48 -218 -50 -10 -2 -26 -6 -35 -9 -9 -3 -28 -7 -42 -10 -14 -2 -65 -14 -115
-26 -49 -12 -98 -24 -107 -26 -10 -2 -27 -6 -38 -9 -45 -11 -66 -16 -87 -21
-12 -2 -34 -9 -48 -14 -14 -5 -25 -8 -25 -5 0 2 -18 -2 -40 -10 -22 -8 -40
-12 -40 -10 0 3 -11 0 -25 -5 -25 -9 -42 -14 -102 -25 -16 -3 -35 -8 -43 -11
-8 -3 -73 -21 -145 -40 -71 -19 -138 -37 -147 -39 -10 -3 -26 -7 -35 -9 -10
-2 -52 -14 -93 -25 -41 -12 -84 -23 -94 -26 -10 -2 -33 -9 -51 -15 -18 -6 -41
-12 -51 -14 -27 -5 -440 -125 -494 -143 -25 -8 -56 -17 -69 -19 -14 -3 -28 -7
-32 -10 -4 -2 -47 -16 -96 -29 -48 -14 -95 -28 -103 -32 -8 -3 -22 -7 -30 -9
-8 -2 -78 -24 -155 -49 -77 -26 -151 -49 -164 -51 -14 -3 -29 -8 -35 -12 -6
-4 -14 -7 -18 -8 -5 -1 -10 -3 -13 -4 -5 -3 -6 -3 -50 -15 -16 -4 -34 -10 -40
-14 -5 -3 -15 -6 -21 -7 -11 -2 -157 -50 -184 -61 -8 -4 -18 -7 -22 -8 -5 -2
-9 -3 -10 -5 -2 -1 -11 -3 -21 -5 -10 -2 -26 -7 -35 -11 -9 -4 -23 -8 -30 -10
-8 -1 -21 -6 -30 -10 -9 -4 -21 -8 -27 -10 -9 -2 -129 -44 -395 -139 -41 -14
-84 -30 -95 -34 -11 -5 -45 -17 -75 -29 -132 -48 -177 -65 -207 -78 -17 -8
-33 -14 -36 -14 -3 0 -18 -5 -34 -12 -15 -6 -32 -12 -38 -14 -5 -1 -23 -7 -40
-14 -16 -6 -32 -12 -35 -12 -3 0 -14 -5 -25 -11 -11 -6 -24 -12 -30 -13 -9 -2
-127 -48 -195 -77 -14 -5 -30 -11 -36 -12 -5 -2 -36 -14 -67 -29 -32 -14 -61
-26 -65 -26 -7 0 -458 -187 -519 -216 -18 -8 -35 -15 -38 -14 -3 0 -22 -9 -42
-20 -21 -11 -41 -20 -45 -20 -3 0 -35 -13 -70 -29 -35 -16 -85 -39 -113 -51
-97 -44 -181 -82 -243 -112 l-63 -29 -32 20 c-29 18 -127 88 -152 109 -5 4
-35 26 -65 48 -75 56 -365 289 -441 355 -198 172 -331 288 -379 333 -233 215
-385 362 -653 630 -322 322 -319 318 -250 330 16 3 48 12 71 20 23 8 42 13 42
11 0 -2 19 2 41 11 23 8 51 16 63 18 28 5 213 54 252 67 17 5 40 11 52 14 11
2 55 13 97 25 42 12 84 23 93 25 9 2 70 17 135 35 64 17 125 33 135 35 87 21
294 75 301 79 4 3 23 8 42 11 19 3 67 15 107 26 40 11 81 22 90 24 9 2 64 15
122 30 58 15 112 28 120 30 8 2 35 8 60 15 25 7 53 14 62 16 10 2 27 6 38 9
11 3 29 7 40 10 11 3 29 7 40 10 11 3 28 7 38 9 9 2 37 9 62 16 25 7 52 13 60
15 8 2 62 15 120 30 58 15 113 29 124 31 10 2 55 12 100 23 202 49 382 93 396
96 12 2 282 67 385 91 23 6 51 12 80 18 17 4 117 27 178 42 9 2 27 6 40 9 12
2 34 7 49 11 15 3 29 5 30 4 2 -1 15 3 29 8 14 6 43 13 63 16 21 4 42 8 46 11
3 2 22 7 41 10 19 3 63 13 99 21 36 9 74 17 85 20 11 2 31 6 45 9 14 4 34 8
45 10 30 7 63 14 83 19 14 4 76 17 187 41 11 3 31 7 45 10 14 4 36 8 50 11 14
3 33 7 42 10 9 3 25 6 35 8 26 5 97 19 103 21 3 1 23 5 45 9 22 4 54 12 70 16
17 5 44 12 60 15 17 3 41 8 55 11 14 2 57 11 95 20 39 8 79 16 90 18 11 3 40
9 65 15 25 5 59 12 75 15 43 8 76 15 105 22 14 3 39 7 55 10 17 3 48 10 70 16
22 5 51 12 65 13 14 2 79 15 145 30 66 14 136 28 155 31 19 3 62 12 95 19 33
8 74 16 90 19 28 5 43 8 105 21 14 2 36 7 50 9 14 3 50 10 80 16 30 6 64 13
75 15 11 2 38 6 60 10 22 3 56 10 75 15 19 5 55 12 80 15 24 4 47 8 50 10 3 2
21 6 40 9 49 8 91 16 120 21 61 13 77 16 103 20 15 3 39 7 55 10 15 3 38 7 52
10 38 8 83 16 105 20 62 10 102 17 115 20 8 3 32 7 54 11 21 3 48 8 60 10 11
2 32 6 46 9 14 2 39 7 55 9 17 3 41 8 55 11 14 3 39 7 55 10 17 2 39 6 50 8
11 3 40 8 65 12 25 4 54 9 65 11 11 2 40 7 65 10 25 3 48 8 51 10 4 2 27 6 50
9 24 3 55 7 69 10 64 13 77 16 110 20 19 3 46 7 60 10 14 3 39 7 55 10 17 2
39 6 50 8 11 3 40 8 65 12 25 4 52 9 60 10 8 2 35 6 60 9 25 3 56 8 70 11 14
3 41 7 60 10 19 3 46 7 60 10 13 2 40 7 60 10 20 3 47 7 60 10 13 3 42 7 65
10 55 8 154 24 185 30 14 2 43 7 65 10 105 15 169 25 195 30 14 3 43 7 65 10
22 3 49 7 60 9 17 3 66 10 145 21 8 2 38 6 65 9 28 4 64 10 80 13 17 3 44 6
60 8 17 2 44 6 61 9 18 3 52 8 75 11 24 3 58 8 74 11 17 3 46 7 65 9 19 2 53
7 75 10 57 9 82 12 149 20 33 4 69 9 80 11 12 3 39 7 60 9 21 2 55 7 75 10 20
3 56 7 81 10 25 3 61 8 80 11 54 8 175 24 220 29 14 1 50 6 80 10 30 4 66 9
80 10 14 1 50 6 80 10 30 4 66 9 80 10 14 2 52 6 85 10 33 4 71 9 85 10 14 2
52 6 85 10 33 4 71 9 85 10 14 1 48 5 75 9 28 3 70 8 95 11 25 2 66 6 93 9 26
4 68 8 95 11 26 3 63 7 82 10 19 2 64 6 100 10 36 3 76 8 90 10 14 3 54 7 90
10 36 3 85 7 110 10 80 8 164 17 195 20 109 9 185 16 215 20 19 3 64 7 100 10
36 3 85 7 110 10 25 2 81 7 125 11 44 3 94 7 110 9 17 1 70 6 120 10 49 3 108
8 130 11 22 2 78 6 125 9 47 3 105 8 130 10 25 3 79 7 120 10 41 3 102 7 135
10 33 2 103 7 155 10 52 3 118 8 145 10 28 2 100 7 160 10 61 4 137 8 170 10
33 2 119 7 190 11 72 3 153 8 180 9 617 34 1603 22 2390 -31 44 -3 109 -7 145
-9 114 -8 203 -14 270 -20 36 -2 97 -7 135 -10 125 -9 189 -15 235 -20 25 -3
74 -7 110 -10 36 -3 86 -7 113 -10 26 -3 70 -7 97 -10 28 -3 71 -7 98 -10 26
-3 72 -7 102 -10 30 -3 78 -8 105 -11 28 -3 68 -7 90 -9 22 -2 58 -6 80 -9 22
-3 69 -8 105 -12 36 -3 76 -8 90 -9 14 -2 50 -6 80 -9 30 -4 71 -9 91 -11 20
-3 55 -8 79 -10 24 -2 59 -7 79 -9 20 -3 54 -8 76 -10 22 -3 58 -8 80 -10 22
-3 60 -8 85 -11 71 -8 133 -16 160 -20 14 -2 63 -9 110 -15 47 -6 96 -13 110
-15 14 -3 45 -7 70 -10 25 -3 58 -7 75 -10 16 -2 52 -7 80 -11 27 -3 57 -8 66
-9 9 -2 40 -6 69 -10 29 -4 62 -9 74 -11 12 -2 41 -6 66 -9 25 -3 56 -7 70
-10 14 -3 45 -8 70 -11 25 -3 54 -8 65 -10 10 -2 37 -6 60 -9 22 -3 51 -8 65
-10 14 -2 43 -7 65 -10 23 -3 52 -7 65 -10 13 -3 42 -7 65 -10 39 -6 59 -9
120 -19 17 -3 48 -7 70 -11 23 -3 52 -7 65 -10 13 -3 40 -7 60 -10 20 -3 47
-7 60 -10 23 -4 80 -14 125 -21 52 -7 105 -16 160 -26 75 -13 91 -15 135 -22
19 -3 46 -8 60 -11 13 -2 40 -7 60 -10 20 -3 45 -7 57 -9 11 -3 38 -7 59 -11
72 -11 99 -16 114 -20 8 -2 33 -7 55 -10 23 -3 52 -8 65 -10 14 -3 40 -8 59
-11 18 -3 43 -8 55 -10 11 -2 37 -7 56 -10 39 -6 64 -11 96 -18 12 -2 37 -7
55 -10 19 -3 44 -8 55 -10 12 -2 37 -7 55 -10 19 -3 45 -8 59 -11 14 -3 50 -9
80 -15 30 -6 64 -12 75 -14 79 -15 245 -46 270 -51 17 -2 41 -7 55 -10 14 -3
39 -8 55 -10 17 -3 62 -12 100 -20 39 -8 84 -16 100 -19 17 -3 41 -8 55 -11
14 -3 36 -7 50 -10 14 -3 36 -7 50 -10 14 -3 36 -7 50 -10 14 -3 36 -7 50 -10
14 -3 39 -8 55 -10 17 -3 37 -8 45 -10 8 -2 29 -7 45 -10 17 -2 41 -7 55 -10
14 -3 37 -7 52 -10 15 -2 35 -6 45 -9 10 -3 32 -8 48 -11 17 -2 41 -7 55 -10
14 -3 36 -7 50 -10 14 -3 36 -7 50 -10 14 -3 41 -8 60 -11 19 -3 38 -8 41 -10
3 -2 19 -6 35 -8 16 -3 40 -8 54 -11 14 -3 39 -8 55 -11 17 -3 50 -10 75 -15
25 -6 56 -13 70 -15 14 -3 53 -11 88 -19 34 -8 74 -17 90 -20 15 -3 38 -7 52
-10 23 -5 34 -7 93 -20 12 -3 33 -7 47 -10 14 -3 35 -7 48 -10 12 -3 32 -7 45
-10 12 -3 35 -8 51 -11 16 -2 32 -7 35 -9 4 -2 26 -6 51 -10 25 -4 47 -8 51
-10 3 -2 19 -7 35 -9 16 -3 40 -8 54 -11 14 -3 36 -8 50 -11 14 -3 41 -9 60
-14 19 -5 47 -11 63 -14 15 -3 35 -7 45 -10 9 -3 28 -7 42 -10 14 -3 77 -16
140 -31 63 -14 124 -27 135 -29 11 -3 101 -23 200 -46 99 -23 191 -44 205 -46
14 -3 59 -14 100 -24 41 -11 86 -22 100 -24 14 -3 34 -7 45 -10 39 -9 250 -58
268 -61 10 -2 27 -7 37 -10 10 -3 27 -8 37 -10 10 -2 50 -11 88 -20 39 -9 78
-19 88 -21 9 -2 26 -6 37 -9 11 -3 29 -7 41 -10 11 -2 28 -6 37 -9 9 -3 28 -7
42 -10 14 -2 45 -9 70 -16 25 -7 53 -14 62 -16 10 -2 27 -6 38 -9 11 -3 30 -7
41 -10 12 -2 65 -15 118 -29 53 -14 107 -27 121 -30 14 -3 45 -10 70 -17 25
-6 53 -13 63 -15 28 -7 61 -15 72 -18 6 -2 24 -6 40 -10 17 -4 44 -11 60 -16
17 -5 41 -11 55 -14 14 -3 34 -7 45 -10 29 -8 108 -27 120 -30 6 -1 19 -5 30
-9 11 -3 31 -8 45 -11 23 -5 39 -8 88 -20 9 -3 98 -26 197 -51 99 -26 188 -49
198 -51 9 -2 25 -6 35 -8 9 -2 53 -14 97 -26 84 -22 104 -27 133 -34 9 -2 71
-18 137 -36 66 -18 127 -33 135 -35 8 -2 35 -9 60 -16 25 -7 51 -14 58 -16 6
-2 18 -5 25 -6 6 -2 26 -7 42 -12 17 -4 79 -21 139 -37 59 -16 115 -31 125
-33 9 -3 59 -16 111 -30 52 -15 100 -28 105 -29 6 -1 30 -8 55 -15 25 -7 52
-14 61 -16 9 -2 49 -13 89 -25 40 -12 80 -23 89 -25 13 -2 74 -19 116 -31 62
-19 165 -47 184 -50 13 -3 32 -9 43 -15 10 -5 18 -8 18 -5 0 2 24 -4 53 -14
30 -11 65 -21 78 -24 13 -3 49 -13 79 -21 30 -9 66 -18 79 -21 13 -3 32 -9 42
-14 10 -6 24 -10 31 -10 19 0 -27 23 -112 55 -41 15 -139 54 -217 86 -79 32
-143 56 -143 53 0 -3 -10 1 -22 8 -13 7 -25 13 -28 13 -3 1 -22 9 -44 18 -21
9 -42 17 -46 17 -4 0 -21 7 -36 15 -16 8 -37 15 -46 15 -9 0 -19 4 -22 9 -3 5
-16 11 -28 14 -13 3 -95 33 -183 67 -88 33 -164 62 -170 64 -5 2 -19 6 -30 11
-77 29 -189 70 -300 110 -71 26 -143 52 -160 58 -16 7 -32 12 -35 12 -3 0 -9
3 -15 6 -5 3 -30 12 -55 19 -25 7 -49 17 -55 20 -5 4 -55 22 -110 40 -55 18
-106 37 -112 42 -7 6 -13 8 -13 5 0 -3 -24 4 -52 15 -29 10 -57 21 -63 22 -5
2 -17 6 -25 9 -8 3 -42 15 -75 26 -33 11 -172 59 -310 106 -137 48 -254 88
-260 89 -5 2 -17 6 -25 9 -25 10 -631 209 -644 211 -6 1 -17 5 -23 9 -7 5 -13
6 -13 2 0 -3 -13 1 -29 9 -15 8 -39 17 -52 20 -13 2 -78 22 -144 44 -130 42
-391 124 -405 127 -6 1 -191 60 -260 82 -25 8 -52 16 -60 18 -8 2 -27 8 -43
14 -15 6 -38 13 -50 15 -12 3 -125 36 -252 74 -193 59 -299 91 -325 97 -3 0
-32 9 -65 19 -33 10 -64 19 -70 20 -5 2 -30 9 -55 16 -25 8 -47 14 -50 15 -3
0 -21 6 -40 13 -19 6 -46 13 -60 16 -14 2 -44 11 -67 20 -24 8 -43 13 -43 11
0 -3 -12 0 -27 6 -16 6 -35 12 -43 14 -8 2 -64 18 -125 35 -60 18 -120 34
-133 36 -13 3 -42 11 -65 18 -42 14 -117 35 -272 76 -44 12 -105 28 -135 36
-30 9 -62 17 -70 19 -8 3 -42 12 -75 21 -33 9 -67 18 -75 19 -8 2 -60 16 -115
30 -55 15 -107 29 -115 31 -8 2 -51 13 -95 24 -44 11 -88 23 -98 25 -10 2 -27
7 -37 10 -10 3 -27 7 -37 9 -10 2 -38 9 -63 16 -44 12 -64 17 -107 26 -12 2
-34 9 -48 14 -14 5 -25 8 -25 5 0 -2 -18 2 -40 10 -22 8 -40 12 -40 10 0 -2
-18 2 -40 10 -22 8 -40 12 -40 10 0 -2 -18 2 -40 10 -22 8 -40 12 -40 10 0 -3
-11 0 -25 5 -14 5 -36 12 -48 14 -20 3 -103 23 -302 72 -33 8 -69 16 -80 18
-11 2 -47 11 -80 19 -33 9 -71 18 -85 21 -38 8 -72 15 -105 23 -16 4 -32 7
-35 8 -3 1 -18 4 -35 8 -16 4 -40 10 -52 12 -13 3 -31 7 -40 9 -32 7 -257 58
-273 61 -8 2 -80 18 -160 35 -80 17 -154 33 -165 36 -11 2 -33 7 -50 9 -16 3
-38 8 -47 11 -16 5 -35 9 -88 19 -14 3 -36 7 -50 10 -46 10 -125 26 -150 31
-21 4 -55 11 -95 20 -5 1 -26 5 -45 8 -19 4 -42 9 -50 11 -8 2 -31 7 -50 10
-19 3 -42 8 -50 10 -8 2 -28 7 -45 10 -16 2 -41 7 -55 10 -14 3 -38 7 -55 10
-16 3 -52 10 -80 15 -27 6 -61 12 -75 15 -14 3 -36 7 -50 10 -14 2 -38 7 -55
10 -16 3 -41 7 -55 10 -14 3 -41 8 -60 11 -19 3 -42 7 -51 10 -9 2 -32 7 -50
9 -19 3 -45 7 -59 10 -14 3 -41 8 -60 11 -19 3 -42 7 -51 10 -9 2 -32 7 -50 9
-19 3 -45 7 -59 10 -14 3 -38 7 -55 10 -16 3 -41 7 -55 10 -14 3 -38 7 -55 9
-16 3 -45 8 -62 11 -18 3 -48 7 -65 10 -18 3 -58 10 -88 15 -30 5 -68 12 -85
14 -63 10 -102 17 -155 26 -67 11 -102 17 -155 25 -23 3 -50 7 -60 9 -11 2
-40 7 -65 10 -25 3 -56 8 -69 11 -14 2 -47 7 -75 10 -28 3 -58 8 -66 10 -8 2
-37 7 -65 11 -27 3 -59 7 -70 9 -11 2 -40 6 -65 9 -25 3 -54 8 -66 10 -12 2
-45 7 -75 11 -30 3 -65 8 -79 10 -24 4 -60 9 -150 20 -25 3 -56 7 -70 10 -14
2 -50 7 -80 10 -30 3 -66 7 -80 9 -14 3 -50 7 -81 11 -31 3 -65 7 -75 9 -11 2
-49 7 -86 10 -37 4 -77 9 -90 11 -13 2 -49 7 -81 10 -32 3 -78 7 -102 10 -202
23 -215 24 -372 40 -61 6 -166 16 -218 20 -22 2 -74 7 -115 10 -80 8 -97 9
-230 20 -47 3 -105 8 -130 10 -25 2 -88 7 -140 11 -52 3 -111 8 -130 9 -39 3
-270 17 -340 20 -358 19 -425 21 -770 31 -579 16 -1485 7 -2220 -21 -335 -13
-579 -24 -670 -30 -30 -2 -111 -7 -180 -10 -69 -3 -150 -8 -180 -10 -30 -2
-98 -7 -150 -10 -52 -4 -122 -8 -155 -11 -33 -2 -91 -6 -130 -9 -95 -6 -272
-20 -390 -29 -33 -3 -96 -8 -140 -11 -44 -3 -96 -8 -115 -10 -19 -3 -66 -7
-105 -10 -38 -3 -90 -7 -115 -9 -54 -5 -154 -15 -230 -22 -30 -3 -77 -7 -105
-10 -27 -2 -72 -7 -100 -10 -65 -6 -129 -13 -185 -19 -25 -2 -72 -7 -105 -10
-33 -3 -77 -8 -97 -10 -21 -3 -57 -7 -80 -10 -24 -3 -63 -7 -88 -10 -49 -6
-110 -13 -180 -20 -49 -5 -116 -13 -170 -20 -63 -8 -124 -15 -175 -20 -46 -5
-93 -11 -155 -20 -14 -2 -50 -6 -80 -10 -30 -3 -66 -8 -80 -10 -14 -3 -44 -7
-67 -10 -24 -3 -62 -7 -85 -10 -24 -3 -61 -8 -83 -11 -41 -5 -75 -10 -142 -19
-21 -3 -54 -8 -73 -10 -19 -2 -48 -6 -65 -9 -36 -6 -95 -14 -150 -21 -22 -2
-58 -7 -80 -11 -74 -11 -90 -13 -140 -20 -27 -3 -59 -8 -70 -10 -18 -3 -42 -7
-135 -20 -20 -2 -45 -6 -56 -8 -12 -2 -45 -7 -74 -11 -29 -4 -62 -9 -74 -11
-11 -2 -36 -6 -56 -9 -20 -3 -45 -7 -55 -9 -11 -2 -42 -7 -70 -11 -27 -4 -61
-8 -75 -10 -14 -2 -40 -6 -57 -9 -52 -9 -84 -14 -133 -21 -25 -3 -52 -8 -60
-10 -8 -2 -35 -7 -60 -11 -25 -3 -54 -7 -65 -9 -11 -2 -38 -6 -60 -9 -22 -3
-51 -8 -65 -11 -13 -2 -40 -7 -60 -10 -20 -3 -47 -8 -60 -10 -14 -3 -41 -7
-60 -10 -19 -3 -46 -7 -60 -10 -14 -3 -43 -8 -65 -10 -22 -3 -47 -7 -55 -10
-8 -2 -33 -7 -55 -10 -23 -3 -52 -7 -65 -10 -13 -3 -40 -7 -60 -10 -20 -3 -47
-8 -60 -10 -14 -3 -41 -7 -60 -10 -19 -3 -46 -7 -60 -10 -14 -3 -45 -8 -70
-11 -25 -3 -48 -8 -52 -10 -4 -3 -24 -7 -44 -10 -48 -6 -160 -25 -234 -39 -13
-3 -40 -7 -60 -10 -20 -3 -47 -8 -60 -10 -14 -3 -38 -8 -55 -10 -61 -11 -141
-25 -161 -29 -22 -5 -81 -15 -124 -21 -14 -3 -36 -7 -50 -9 -13 -3 -42 -8 -65
-11 -22 -3 -47 -8 -55 -10 -15 -4 -65 -14 -110 -20 -14 -3 -36 -7 -50 -9 -13
-3 -42 -8 -65 -12 -22 -3 -58 -9 -80 -14 -22 -5 -58 -11 -80 -14 -23 -4 -52
-9 -65 -11 -28 -6 -71 -14 -115 -21 -43 -7 -76 -13 -105 -19 -13 -2 -40 -7
-60 -10 -20 -3 -47 -8 -60 -10 -14 -3 -38 -7 -55 -10 -16 -3 -41 -7 -55 -10
-14 -3 -40 -7 -57 -10 -74 -12 -132 -22 -173 -30 -13 -2 -40 -7 -60 -10 -20
-3 -47 -8 -60 -10 -14 -3 -41 -7 -60 -10 -19 -3 -46 -7 -60 -10 -14 -3 -41 -7
-60 -10 -19 -3 -46 -7 -60 -10 -13 -2 -40 -7 -60 -10 -20 -3 -47 -8 -60 -10
-14 -3 -44 -8 -66 -11 -23 -2 -52 -7 -65 -9 -13 -3 -41 -7 -64 -10 -22 -4 -53
-9 -70 -11 -16 -3 -39 -7 -50 -9 -11 -1 -39 -5 -62 -9 -24 -3 -60 -8 -81 -11
-21 -3 -48 -7 -59 -9 -12 -3 -46 -7 -75 -10 -29 -4 -64 -8 -78 -10 -14 -3 -47
-8 -75 -11 -27 -4 -61 -8 -75 -10 -48 -7 -158 -19 -265 -30 -38 -3 -81 -8 -95
-10 -14 -2 -63 -7 -110 -10 -47 -4 -101 -8 -120 -10 -208 -22 -666 -22 -830
-1 -192 26 -197 27 -290 51 -36 9 -69 18 -75 19 -20 4 -60 17 -80 26 -11 5
-45 20 -75 33 -81 35 -100 75 -96 193 5 114 35 225 119 428 27 66 199 408 251
500 31 54 56 100 56 102 0 2 20 37 45 77 25 41 45 79 45 85 0 6 3 12 8 14 4 2
31 41 59 88 74 123 149 245 223 361 36 56 67 107 69 112 2 5 10 17 17 26 7 9
55 80 106 158 159 244 497 740 652 958 8 11 98 137 200 280 102 143 192 269
200 280 8 11 93 128 190 260 97 132 182 249 190 260 44 61 614 823 628 840 9
11 60 79 114 150 53 72 108 144 121 160 28 36 18 23 138 180 54 72 109 144
122 160 31 40 23 29 158 205 222 288 906 1164 970 1242 20 25 257 324 335 423
71 91 442 552 613 762 59 73 106 133 104 133 -2 0 -27 -24 -54 -52z"/>
<path d="M20187 8214 c-1 -1 -180 -5 -397 -9 -404 -7 -460 -8 -755 -19 -185
-7 -243 -10 -640 -31 -78 -4 -275 -16 -330 -20 -27 -2 -88 -6 -135 -9 -118 -8
-214 -15 -285 -21 -33 -3 -91 -8 -130 -10 -38 -3 -97 -8 -130 -11 -77 -7 -134
-12 -215 -19 -36 -3 -85 -7 -110 -10 -25 -3 -70 -7 -100 -10 -85 -8 -162 -15
-200 -20 -19 -2 -64 -7 -100 -10 -66 -6 -118 -12 -180 -20 -19 -2 -64 -7 -100
-11 -36 -3 -74 -8 -85 -10 -11 -2 -49 -6 -85 -9 -36 -3 -75 -7 -87 -9 -12 -3
-46 -7 -75 -11 -29 -3 -69 -8 -88 -10 -19 -3 -55 -7 -80 -10 -25 -3 -56 -7
-70 -10 -14 -2 -49 -7 -79 -10 -30 -4 -61 -8 -70 -10 -9 -1 -45 -6 -81 -10
-36 -4 -74 -9 -85 -11 -11 -2 -40 -7 -65 -10 -25 -3 -56 -8 -70 -10 -14 -2
-45 -6 -70 -9 -25 -3 -58 -8 -75 -11 -16 -3 -41 -7 -55 -9 -14 -2 -43 -6 -65
-10 -22 -3 -56 -8 -75 -11 -19 -3 -46 -7 -60 -9 -14 -3 -42 -7 -63 -9 -21 -3
-63 -10 -95 -15 -31 -6 -72 -13 -89 -16 -18 -3 -46 -7 -61 -10 -16 -3 -44 -7
-63 -9 -19 -3 -44 -7 -55 -10 -12 -2 -39 -7 -60 -10 -70 -11 -255 -43 -290
-50 -12 -2 -37 -7 -55 -10 -19 -3 -45 -8 -59 -11 -13 -2 -42 -7 -65 -10 -22
-3 -48 -8 -58 -11 -11 -4 -29 -7 -40 -9 -47 -7 -103 -16 -119 -21 -19 -5 -40
-10 -89 -18 -35 -6 -65 -12 -109 -21 -14 -3 -36 -7 -50 -10 -88 -17 -143 -28
-200 -40 -14 -3 -36 -8 -50 -11 -14 -3 -36 -7 -50 -9 -14 -2 -35 -7 -47 -10
-13 -3 -33 -7 -45 -10 -113 -23 -199 -42 -353 -77 -99 -22 -191 -42 -205 -44
-14 -3 -52 -12 -85 -20 -33 -9 -71 -18 -85 -20 -14 -3 -50 -11 -80 -19 -30 -8
-66 -16 -80 -19 -14 -3 -36 -8 -50 -11 -14 -3 -35 -8 -47 -11 -12 -2 -34 -9
-48 -14 -14 -5 -25 -8 -25 -5 0 2 -18 -2 -40 -10 -22 -8 -40 -12 -40 -10 0 3
-11 0 -26 -5 -14 -6 -39 -12 -57 -15 -18 -3 -50 -11 -72 -17 -53 -15 -56 -16
-82 -22 -13 -3 -32 -8 -43 -11 -11 -3 -29 -7 -40 -10 -12 -2 -55 -14 -98 -25
-77 -22 -93 -26 -133 -35 -12 -2 -36 -9 -53 -14 -17 -6 -67 -20 -111 -31 -44
-12 -96 -26 -115 -31 -19 -5 -43 -11 -52 -14 -9 -2 -65 -18 -125 -35 -59 -18
-133 -39 -163 -47 -30 -8 -84 -23 -120 -34 -36 -11 -72 -22 -80 -24 -8 -2 -28
-8 -45 -15 -16 -6 -32 -11 -35 -11 -3 1 -30 -7 -60 -16 -30 -9 -58 -17 -62
-19 -5 -1 -9 -2 -10 -4 -2 -1 -10 -3 -18 -5 -9 -1 -63 -18 -120 -36 -58 -18
-107 -34 -110 -34 -5 -1 -199 -61 -230 -71 -8 -3 -16 -5 -17 -5 -3 1 -24 -7
-98 -35 -11 -4 -24 -8 -30 -9 -14 -4 -227 -74 -245 -82 -8 -3 -22 -7 -31 -9
-9 -2 -29 -9 -45 -15 -16 -7 -33 -13 -39 -15 -5 -1 -62 -21 -125 -43 -63 -23
-122 -44 -130 -46 -8 -2 -53 -18 -100 -35 -47 -17 -112 -40 -145 -51 -33 -12
-73 -27 -90 -34 -16 -7 -52 -20 -80 -30 -27 -10 -63 -23 -80 -30 -16 -7 -75
-30 -130 -50 -55 -21 -114 -44 -132 -52 -17 -8 -37 -16 -45 -17 -7 -2 -24 -8
-38 -13 -14 -6 -50 -21 -80 -32 -30 -12 -64 -26 -75 -31 -11 -5 -81 -34 -155
-64 -166 -66 -322 -131 -375 -156 -22 -10 -74 -33 -115 -50 -41 -18 -102 -44
-135 -60 -33 -15 -78 -35 -100 -45 -22 -9 -62 -28 -88 -41 -27 -13 -54 -24
-61 -24 -7 0 -18 -6 -25 -12 -6 -7 -15 -13 -19 -13 -4 -1 -47 -20 -97 -44 -49
-25 -92 -45 -95 -45 -17 -4 -160 -80 -156 -83 2 -3 13 0 23 6 11 5 89 37 174
71 85 33 163 65 174 70 11 5 45 17 75 28 30 11 69 26 85 33 17 6 35 13 40 14
6 2 55 19 110 40 55 20 123 45 150 55 28 10 104 37 170 60 66 23 134 46 150
53 17 6 35 13 40 14 12 3 316 104 400 133 33 11 67 22 75 25 8 2 47 14 85 26
39 13 73 24 78 25 4 1 9 3 12 4 3 1 8 3 13 4 12 3 126 38 142 44 8 3 17 6 20
7 11 3 95 29 100 30 3 1 23 7 45 13 22 6 43 12 47 12 5 0 25 7 45 14 46 17
180 58 188 57 3 -1 21 5 40 13 19 8 35 13 35 11 0 -1 21 4 48 12 102 31 218
65 237 69 12 2 46 12 78 23 31 11 57 18 57 16 0 -3 12 0 28 6 15 6 34 12 42
14 8 2 67 17 130 35 63 17 122 32 130 34 8 2 35 9 60 16 25 7 47 12 50 12 3 0
15 4 28 9 13 5 35 11 50 14 15 3 52 12 82 20 57 16 76 21 110 30 11 3 29 7 40
10 25 6 23 6 214 55 87 22 168 42 180 44 18 4 81 19 126 30 28 8 115 28 137
32 12 2 34 9 48 14 14 5 25 8 25 5 0 -2 15 1 33 6 17 6 46 13 62 15 17 3 57
12 90 21 33 8 67 16 75 18 8 2 45 10 83 19 37 9 79 18 95 21 15 3 38 7 52 11
27 6 91 20 128 28 13 3 31 7 40 10 9 3 33 8 52 11 19 3 63 12 98 20 59 14 76
18 147 30 17 3 38 8 47 11 18 5 46 11 93 19 17 3 38 8 48 11 10 3 30 7 45 9
15 3 38 7 52 10 84 17 153 31 200 40 14 3 36 7 50 10 68 14 137 27 155 29 11
2 34 6 50 10 17 3 41 8 55 11 14 3 36 7 50 10 14 2 41 7 60 10 19 3 42 8 50
10 8 3 31 7 50 9 19 3 46 8 60 10 13 3 42 8 65 11 22 3 47 8 55 10 15 4 68 14
105 20 11 1 35 6 53 9 17 3 47 8 65 11 17 3 43 7 57 10 14 3 39 7 55 9 64 10
134 23 170 30 11 2 40 7 65 10 25 3 56 8 70 11 13 2 40 7 60 10 20 3 47 7 60
10 14 3 43 7 65 10 22 3 51 7 65 10 14 3 45 8 70 11 25 3 52 7 60 9 8 2 38 7
65 11 28 3 59 8 70 10 11 3 40 7 65 10 25 3 54 7 65 9 11 2 41 6 66 10 26 3
58 8 70 10 13 3 47 7 74 10 28 4 64 9 80 12 17 3 41 6 55 8 14 1 43 5 65 9 22
3 60 8 85 11 25 3 55 7 67 9 12 3 48 7 80 11 32 3 69 8 83 10 14 2 50 6 80 10
30 3 66 8 80 10 14 2 50 7 80 10 30 4 66 8 80 10 14 3 45 6 70 9 25 3 66 7 93
10 26 3 66 8 90 11 23 3 62 7 87 10 25 3 65 8 90 10 25 2 63 6 85 9 22 3 69 8
105 12 36 3 79 8 95 10 17 1 59 6 95 9 36 4 81 8 100 10 19 2 62 6 95 9 33 3
78 8 100 10 22 3 74 8 115 11 41 4 93 9 115 10 22 2 76 7 120 11 44 3 94 7
110 9 17 1 71 6 120 10 50 3 108 9 130 11 22 2 78 6 125 9 47 3 110 8 140 10
30 2 93 7 140 10 47 3 114 7 150 10 69 5 157 11 330 20 58 3 139 8 180 10 70
4 215 11 420 20 1174 50 2454 50 3600 0 159 -7 341 -15 425 -20 44 -2 125 -7
180 -10 55 -3 133 -7 174 -10 41 -3 113 -7 160 -10 47 -3 111 -7 141 -10 30
-2 98 -7 150 -11 129 -9 150 -10 260 -19 52 -4 111 -9 130 -10 19 -1 69 -6
110 -9 82 -8 127 -12 240 -21 41 -3 93 -8 115 -10 22 -3 67 -7 100 -10 33 -3
80 -7 105 -10 25 -3 72 -7 105 -10 33 -3 74 -7 90 -9 17 -2 59 -7 95 -10 36
-4 83 -9 105 -12 22 -2 60 -7 85 -9 25 -3 68 -8 95 -11 28 -4 66 -7 85 -9 19
-2 62 -6 95 -10 33 -4 71 -9 85 -10 25 -3 92 -11 160 -20 19 -2 58 -7 85 -10
51 -5 98 -11 170 -21 22 -3 51 -7 65 -9 28 -4 97 -13 150 -20 19 -3 53 -7 75
-10 22 -2 49 -7 61 -9 11 -2 45 -7 75 -10 30 -3 63 -8 75 -10 12 -2 45 -7 75
-11 30 -3 61 -8 69 -10 8 -2 39 -7 69 -10 30 -4 61 -8 70 -10 16 -3 96 -15
138 -20 13 -2 42 -6 65 -10 24 -4 57 -9 73 -11 17 -3 41 -7 55 -9 14 -2 39 -6
55 -9 101 -15 122 -19 140 -22 10 -2 35 -6 55 -9 20 -3 47 -7 60 -10 13 -3 42
-7 65 -10 45 -7 79 -13 115 -20 13 -2 42 -7 65 -10 22 -3 47 -8 55 -10 8 -2
33 -7 55 -10 23 -3 52 -8 65 -11 14 -2 36 -6 50 -9 48 -7 103 -17 124 -21 11
-2 37 -7 56 -10 19 -3 42 -7 51 -10 9 -2 32 -7 50 -9 19 -3 45 -7 59 -10 14
-3 37 -7 53 -10 15 -3 39 -7 55 -10 15 -3 38 -7 52 -10 14 -3 39 -7 55 -10 17
-3 41 -8 55 -10 14 -3 36 -7 50 -10 58 -11 126 -25 146 -29 12 -2 37 -7 55
-10 57 -10 90 -16 189 -38 52 -12 102 -22 110 -23 8 -1 29 -5 45 -8 17 -4 39
-9 50 -11 17 -4 141 -29 200 -42 11 -2 34 -7 50 -9 17 -3 38 -8 47 -11 17 -5
42 -10 92 -20 16 -2 32 -7 35 -9 4 -2 26 -6 51 -10 25 -4 47 -8 50 -10 4 -2
51 -13 106 -25 54 -12 108 -23 119 -26 21 -5 45 -11 80 -18 30 -7 136 -31 175
-41 11 -3 29 -7 41 -10 11 -2 28 -6 37 -9 9 -3 32 -8 51 -11 19 -3 37 -8 41
-10 3 -2 17 -6 31 -9 25 -4 348 -82 384 -92 6 -1 84 -21 175 -44 156 -38 240
-61 303 -80 15 -5 27 -7 27 -5 0 2 18 -2 40 -10 22 -8 41 -14 43 -14 1 1 22
-4 47 -11 25 -7 54 -14 65 -17 23 -5 25 -5 85 -22 25 -7 53 -15 62 -17 10 -2
28 -7 41 -10 12 -3 29 -7 37 -9 8 -2 16 -4 18 -5 1 -2 5 -3 10 -4 4 -2 27 -8
52 -15 25 -7 52 -14 60 -16 8 -2 96 -26 195 -55 99 -29 187 -54 195 -55 8 -2
94 -27 190 -55 96 -29 189 -55 205 -60 17 -5 46 -13 65 -20 19 -6 42 -13 50
-15 8 -2 60 -18 115 -35 55 -17 107 -33 115 -35 8 -2 35 -10 60 -18 25 -8 92
-30 150 -47 58 -18 139 -44 180 -57 41 -14 80 -26 85 -27 6 -1 75 -24 155 -50
80 -26 153 -49 162 -51 9 -2 25 -8 35 -13 10 -6 21 -11 25 -11 8 -2 12 -3 73
-22 22 -7 42 -14 45 -14 3 -1 12 -4 20 -8 8 -3 103 -35 210 -71 107 -36 254
-86 325 -112 72 -25 135 -47 140 -48 6 -2 17 -6 25 -9 8 -3 56 -20 105 -38 50
-17 126 -45 170 -61 44 -16 87 -30 95 -33 8 -2 36 -12 63 -24 26 -11 47 -18
47 -15 0 2 19 -5 43 -17 23 -12 43 -21 44 -21 3 2 22 -5 88 -31 28 -10 55 -20
60 -22 6 -1 19 -6 30 -10 11 -4 67 -25 125 -47 58 -22 173 -66 255 -99 83 -33
155 -61 160 -62 15 -4 155 -58 190 -73 76 -33 209 -83 212 -80 2 2 -36 20 -84
40 -48 21 -101 44 -118 51 -16 7 -79 34 -140 60 -60 25 -126 53 -145 61 -19 9
-44 19 -55 24 -11 4 -36 15 -55 23 -19 8 -75 31 -125 52 -49 20 -103 43 -120
50 -16 7 -100 41 -185 75 -85 34 -168 68 -185 75 -43 19 -138 57 -150 59 -5 1
-32 12 -59 24 -27 12 -53 22 -57 22 -5 0 -17 5 -27 10 -9 6 -71 31 -137 55
-66 25 -185 71 -265 102 -176 67 -461 174 -475 177 -5 2 -21 8 -35 13 -14 6
-72 27 -130 47 -58 21 -114 41 -125 46 -11 5 -40 16 -65 24 -25 8 -90 31 -145
51 -55 20 -134 48 -175 62 -41 13 -82 27 -90 30 -8 3 -19 7 -25 9 -5 2 -155
52 -332 113 -178 60 -323 107 -323 104 0 -3 -6 -1 -12 4 -7 5 -60 24 -118 42
-58 18 -134 43 -170 56 -36 12 -68 23 -73 23 -7 1 -57 16 -412 127 -122 38
-288 88 -335 100 -8 2 -78 23 -155 45 -170 51 -343 100 -370 106 -42 10 -50
13 -50 14 0 1 -7 3 -15 5 -8 2 -49 14 -90 25 -41 12 -82 23 -90 25 -8 2 -42
11 -75 20 -33 10 -73 21 -90 25 -249 67 -236 64 -286 75 -12 2 -36 9 -53 14
-34 11 -299 80 -331 87 -11 2 -82 19 -158 39 -77 19 -149 37 -160 39 -12 3
-32 7 -44 10 -13 4 -33 8 -45 11 -13 3 -52 12 -87 21 -62 15 -75 18 -122 29
-11 2 -28 6 -37 9 -9 3 -28 8 -42 10 -14 3 -45 10 -70 16 -25 6 -56 13 -70 16
-14 3 -82 18 -152 34 -70 16 -137 31 -150 34 -13 2 -43 9 -68 15 -25 5 -56 12
-70 15 -14 3 -34 7 -45 10 -11 2 -65 14 -120 25 -55 12 -131 28 -170 36 -38 8
-81 17 -95 20 -39 7 -73 14 -100 20 -57 12 -112 23 -200 40 -14 3 -36 7 -50
10 -26 6 -57 12 -100 20 -27 5 -60 12 -100 20 -14 2 -38 7 -55 10 -16 3 -41 7
-55 10 -14 3 -50 9 -80 15 -69 12 -92 16 -155 29 -27 5 -68 12 -90 15 -23 4
-52 9 -65 12 -14 2 -36 6 -50 9 -47 7 -102 17 -124 21 -27 5 -67 12 -108 19
-18 3 -58 10 -88 15 -82 14 -111 19 -155 25 -61 9 -87 14 -125 20 -19 4 -46 8
-60 10 -38 6 -102 16 -130 21 -14 2 -59 9 -100 15 -107 15 -115 16 -162 24
-51 8 -77 12 -138 20 -25 3 -56 8 -70 10 -58 8 -117 17 -140 20 -14 3 -45 7
-70 10 -25 3 -56 7 -70 9 -29 5 -121 16 -167 21 -28 3 -69 9 -143 20 -23 3
-111 14 -170 20 -39 4 -132 16 -160 20 -14 2 -47 6 -75 9 -27 3 -73 8 -100 11
-28 3 -68 7 -90 10 -22 2 -67 7 -100 11 -96 10 -106 11 -180 18 -38 4 -92 9
-120 12 -27 4 -66 8 -85 9 -45 4 -165 15 -210 20 -50 5 -177 16 -230 20 -71 5
-191 16 -235 20 -22 2 -76 7 -120 10 -156 11 -211 15 -285 20 -42 3 -107 8
-145 10 -125 7 -259 16 -325 20 -119 8 -301 16 -650 30 -444 18 -1731 40
-1743 29z"/>
</g>
</svg>
