<svg xmlns="http://www.w3.org/2000/svg" width="1600" height="1000" fill="none"><circle cx="851.758" cy="546.897" r="1012"/><circle cx="874.659" cy="502.481" r="1001.028"/><circle cx="886.815" cy="480.514" r="998.878"/><circle cx="899.464" cy="458.71" r="996.707"/><circle cx="912.572" cy="437.066" r="994.56"/><circle cx="926.168" cy="415.604" r="992.389"/><circle cx="940.251" cy="394.334" r="990.241"/><circle cx="954.801" cy="373.271" r="988.07"/><circle cx="969.777" cy="352.645" r="985.898"/><circle cx="985.139" cy="332.486" r="983.751"/><circle cx="1000.898" cy="312.755" r="981.578"/><circle cx="1017.042" cy="293.496" r="979.431"/><circle cx="1033.555" cy="274.68" r="977.26"/><circle cx="1050.449" cy="256.338" r="975.087"/><circle cx="1067.671" cy="238.439" r="972.941"/><circle cx="1085.27" cy="221.023" r="970.77"/><circle cx="1103.183" cy="204.065" r="968.622"/><circle cx="1121.428" cy="187.532" r="966.448"/><circle cx="1140.015" cy="171.498" r="964.304"/><circle cx="1158.899" cy="155.943" r="962.131"/><circle cx="1178.091" cy="140.831" r="959.958"/><circle cx="1197.563" cy="126.211" r="957.811"/><circle cx="1217.355" cy="112.066" r="955.64"/><circle cx="1237.375" cy="98.372" r="953.493"/><circle cx="1257.681" cy="85.152" r="951.319"/><circle cx="1278.262" cy="72.431" r="949.172"/><circle cx="1299.086" cy="60.181" r="947"/><circle cx="1320.164" cy="48.393" r="944.83"/><circle cx="1341.453" cy="37.1" r="942.682"/><circle cx="1362.962" cy="26.292" r="940.511"/><circle cx="1384.697" cy="15.96" r="938.362"/><circle cx="1406.633" cy="6.116" r="936.192"/><circle cx="1428.779" cy="-3.225" r="934.019"/><circle cx="1451.109" cy="-12.096" r="931.874"/><circle cx="1473.601" cy="-20.486" r="929.701"/><circle cx="1496.273" cy="-28.358" r="927.554"/><circle cx="1519.118" cy="-35.745" r="925.38"/><circle cx="1542.116" cy="-42.634" r="923.235"/><circle cx="1565.247" cy="-49.025" r="921.063"/><circle cx="1588.523" cy="-54.939" r="918.891"/><circle cx="1611.905" cy="-60.354" r="916.745"/><circle cx="1635.422" cy="-65.248" r="914.573"/><circle cx="1659.046" cy="-69.631" r="912.427"/><circle cx="1682.779" cy="-73.526" r="910.253"/><circle cx="1706.574" cy="-76.904" r="908.106"/><circle cx="1730.456" cy="-79.786" r="905.932"/><circle cx="1754.434" cy="-82.157" r="903.762"/><circle cx="1778.459" cy="-84.034" r="901.614"/><circle cx="1802.56" cy="-85.377" r="899.443"/><circle cx="1826.681" cy="-86.211" r="897.297"/><circle cx="1850.856" cy="-86.526" r="895.123"/><circle cx="1875.076" cy="-86.322" r="892.952"/><circle cx="1899.267" cy="-85.605" r="890.806"/><circle cx="1923.499" cy="-84.387" r="888.632"/><circle cx="1947.742" cy="-82.627" r="886.486"/><circle cx="1971.964" cy="-80.326" r="884.315"/><circle cx="1996.17" cy="-77.53" r="882.167"/><circle cx="2020.365" cy="-74.227" r="879.997"/><circle cx="2044.519" cy="-70.349" r="877.825"/><circle cx="2068.635" cy="-65.969" r="875.676"/><circle cx="2092.682" cy="-61.044" r="873.505"/><circle cx="2116.69" cy="-55.592" r="871.358"/><circle cx="2140.62" cy="-49.628" r="869.186"/><circle cx="2164.478" cy="-43.104" r="867.013"/><circle cx="2188.255" cy="-36.045" r="864.865"/><circle cx="2211.91" cy="-28.472" r="862.691"/><circle cx="2235.5" cy="-20.33" r="860.547"/><circle cx="2258.953" cy="-11.662" r="858.375"/><circle cx="2282.274" cy="-2.465" r="856.227"/><circle cx="2305.495" cy="7.305" r="854.056"/><circle cx="2328.575" cy="17.631" r="851.885"/><circle cx="2351.488" cy="28.458" r="849.737"/><circle cx="2374.256" cy="39.867" r="847.563"/><circle cx="2396.845" cy="51.805" r="845.417"/><circle cx="2419.265" cy="64.322" r="843.245"/><circle cx="1332.478" cy="1029.58" r="532.006"/><circle cx="1333.71" cy="1005.588" r="529.834"/><circle cx="1335.773" cy="981.656" r="527.661"/><circle cx="1338.715" cy="957.772" r="525.514"/><circle cx="1342.518" cy="933.957" r="523.342"/><circle cx="1347.184" cy="910.202" r="521.195"/><circle cx="1352.745" cy="886.625" r="519.023"/><circle cx="1359.175" cy="863.169" r="516.852"/><circle cx="1366.538" cy="839.905" r="514.705"/><circle cx="1374.743" cy="816.82" r="512.532"/><circle cx="1383.854" cy="793.941" r="510.385"/><circle cx="1393.864" cy="771.321" r="508.214"/><circle cx="1404.786" cy="748.941" r="506.067"/><circle cx="1416.629" cy="726.873" r="503.893"/><circle cx="1429.389" cy="705.109" r="501.723"/><circle cx="1443.059" cy="683.676" r="499.576"/><circle cx="1457.616" cy="662.671" r="497.403"/><circle cx="1472.976" cy="642.494" r="495.256"/><circle cx="1489.085" cy="623.17" r="493.085"/><circle cx="1505.9" cy="604.745" r="490.938"/><circle cx="1523.373" cy="587.191" r="488.764"/><circle cx="1541.524" cy="570.514" r="486.594"/><circle cx="1560.249" cy="554.724" r="484.445"/><circle cx="1579.595" cy="539.863" r="482.277"/><circle cx="1599.462" cy="525.895" r="480.129"/><circle cx="1619.85" cy="512.806" r="477.956"/><circle cx="1640.72" cy="500.67" r="475.787"/><circle cx="1662.045" cy="489.435" r="473.637"/><circle cx="1683.787" cy="479.138" r="471.464"/><circle cx="1705.915" cy="469.753" r="469.317"/><circle cx="1728.415" cy="461.328" r="467.145"/><circle cx="1751.219" cy="453.849" r="464.997"/><circle cx="1774.31" cy="447.295" r="462.827"/><circle cx="1797.648" cy="441.717" r="460.654"/><circle cx="1821.22" cy="437.096" r="458.508"/><circle cx="1844.994" cy="433.436" r="456.335"/><circle cx="1868.9" cy="430.743" r="454.187"/><circle cx="1892.97" cy="429.024" r="452.016"/><circle cx="1917.095" cy="428.315" r="449.846"/><circle cx="1941.295" cy="428.566" r="447.697"/><circle cx="1965.535" cy="429.823" r="445.525"/><circle cx="1989.75" cy="432.064" r="443.376"/><circle cx="2013.935" cy="435.339" r="441.209"/><circle cx="1650.864" cy="1007.822" r="259.636"/><circle cx="1652.667" cy="983.872" r="257.487"/><circle cx="1656.147" cy="960.007" r="255.316"/><circle cx="1661.265" cy="936.361" r="253.169"/><circle cx="1668.115" cy="912.985" r="250.997"/><circle cx="1676.675" cy="889.991" r="248.852"/><circle cx="1686.94" cy="867.425" r="246.679"/><circle cx="1698.948" cy="845.413" r="244.506"/><circle cx="1712.724" cy="824.024" r="242.359"/><circle cx="1728.105" cy="803.857" r="240.189"/><circle cx="1744.87" cy="785.367" r="238.039"/><circle cx="1762.92" cy="768.591" r="235.868"/><circle cx="1782.125" cy="753.51" r="233.694"/><circle cx="1802.338" cy="740.158" r="231.549"/><circle cx="1823.485" cy="728.578" r="229.378"/><defs><linearGradient id="prefix__prefix__a" x1="4%" x2="96%" y1="69%" y2="31%"><stop stop-color="#181413"/><stop offset="24%" stop-color="#2C33A5"/><stop offset="48%" stop-color="#F78166"/><stop offset="67%" stop-color="#F4E162"/><stop offset="86%" stop-color="#7EE787"/><stop offset="100%" stop-color="#FAFBFC"/></linearGradient></defs><style>circle{fill:url(#prefix__prefix__a)}</style></svg>